<svg width="960" height="960" viewBox="0 0 960 960" fill="none" xmlns="http://www.w3.org/2000/svg">
<g clip-path="url(#clip0_510_1396)">
<path fill-rule="evenodd" clip-rule="evenodd" d="M698.477 599.429C698.477 599.429 865.017 598.989 864.126 683.595C863.235 768.201 715.042 772.689 693.11 755.673C690.546 753.648 688.251 751.305 686.279 748.7C676.424 735.929 671.529 716.021 671.947 701.5C671.991 700.037 672.09 698.629 672.247 697.287L671.928 697.254C671.928 697.254 651.92 678.676 645.651 684.044C639.382 689.412 656.851 704.195 656.851 704.195C656.851 704.195 604.022 700.609 603.571 709.562C603.219 716.492 635.325 717.79 649.855 718.01C638.834 718.043 617.782 718.637 609.18 722.53C606.793 723.608 605.364 724.93 605.364 726.578C605.364 734.839 645.731 733.332 658.699 732.628C649.262 733.255 625.382 735.235 613.723 739.898L613.459 739.271H566.266L562.384 669.271C562.384 669.271 500.062 667.471 475.973 649.571C432.262 617.113 421.131 538.644 420.46 522.255C420.26 517.328 427.335 514.446 437.333 512.818C449.696 510.805 466.514 510.728 479.559 511.08C491.097 511.399 499.699 512.07 499.699 512.07C499.699 512.07 509.774 574.81 525.217 589.362C540.66 603.914 631.327 603.162 631.327 603.162H632.669V590.926C632.669 581.302 640.049 583.315 640.049 583.315C640.049 583.315 646.088 583.436 654.106 583.601C656.062 583.641 658.135 583.684 660.267 583.728L660.271 583.729C671.402 583.959 684.14 584.223 690.14 584.371C691.086 584.393 691.856 584.415 692.44 584.437C700.271 584.657 698.027 590.037 698.027 590.037V599.43L698.477 599.429ZM704.502 607.415C704.549 606.588 705.258 605.956 706.085 606.002C732.677 607.508 771.814 613.451 802.756 626.442C818.222 632.935 831.772 641.244 840.655 651.757C849.589 662.33 853.775 675.116 850.466 690.319C850.289 691.129 849.49 691.642 848.681 691.466C847.871 691.289 847.358 690.49 847.534 689.681C850.625 675.484 846.761 663.632 838.364 653.693C829.915 643.694 816.853 635.615 801.594 629.208C771.086 616.399 732.323 610.492 705.915 608.998C705.088 608.951 704.456 608.242 704.502 607.415ZM492.5 520.045C492.524 519.217 491.873 518.526 491.045 518.501C490.217 518.476 489.526 519.127 489.501 519.955C488.91 539.608 494.183 567.942 512.07 588.984C530.056 610.144 560.561 623.656 609.79 613.972C610.603 613.812 611.132 613.023 610.972 612.21C610.812 611.398 610.023 610.868 609.211 611.028C560.839 620.544 531.511 607.223 514.356 587.041C497.101 566.742 491.923 539.226 492.5 520.045Z" fill="#171717"/>
<path fill-rule="evenodd" clip-rule="evenodd" d="M321.697 694.721C322.188 694.74 322.686 694.76 323.194 694.78L321.004 721.434C330.991 721.347 339.571 722.334 339.571 725.934C339.571 732.108 317.231 733.634 304.604 734.008C316.483 734.063 336.711 735.075 336.711 741.3C336.711 745.24 327.632 747.176 317.611 748.1C318.379 748.353 401.237 775.345 435.411 739.267C445.069 729.071 450.832 713.837 449.754 691.531C447.026 635.28 396.341 620.596 351.641 618.705C335.381 618.113 319.1 618.841 302.958 620.882C302.958 620.882 312.33 662.026 269.279 669.202C226.228 676.378 236.985 624.578 236.985 624.578C218.028 625.755 199.2 628.488 180.691 632.751C140.467 642.342 98.4609 662.372 99.5379 704.224C99.6615 716.235 103.81 727.857 111.319 737.232C136.551 768.833 196.453 774.916 232.86 773.101C236.192 749.343 237.498 725.344 236.765 701.364C237.855 701.397 238.935 701.429 240.002 701.46C241.763 701.512 243.487 701.562 245.165 701.617V701.606C245.165 701.606 234.003 701.269 234.914 693.306C235.825 685.343 274.225 694.78 274.225 694.78C274.225 694.78 264.195 686.893 270.068 681.702C275.941 676.511 292.286 694.78 292.286 694.78L292.462 692.932C292.462 692.932 296.554 693.647 316.231 694.494C317.935 694.573 319.751 694.645 321.697 694.721ZM336.55 624.501C335.722 624.473 335.029 625.122 335.001 625.95C334.973 626.778 335.622 627.471 336.45 627.499C353.726 628.078 378.908 632.201 399.719 641.165C420.632 650.173 436.5 663.766 436.5 683C436.5 683.828 437.172 684.5 438 684.5C438.828 684.5 439.5 683.828 439.5 683C439.5 661.834 422.034 647.51 400.906 638.41C379.675 629.265 354.107 625.089 336.55 624.501Z" fill="url(#paint0_linear_510_1396)"/>
<path fill-rule="evenodd" clip-rule="evenodd" d="M285.087 538.064C291.851 533.022 289.343 524.122 289.2 523.622C289.558 524.018 295.1 530.057 302.459 527.564C305.825 526.42 307.486 523.032 308.3 519.6C331.658 570.371 296.39 602.559 284.271 613.62C282.368 615.356 281.036 616.572 280.591 617.257C277.313 622.305 283.451 623.944 283.451 623.944C283.451 623.944 288.246 622.932 296.199 621.788C298.256 621.493 300.511 621.188 302.963 620.888C319.105 618.847 335.386 618.119 351.646 618.711L351.657 618.48C354.485 617.333 356.91 615.373 358.623 612.847C360.336 610.321 361.261 607.343 361.281 604.291C361.49 593.434 346.333 592.202 346.333 592.202C350.891 589.776 354.638 586.068 357.113 581.537C359.588 577.005 360.681 571.848 360.258 566.702C359.027 548.366 338.348 549.807 338.348 549.807C338.348 549.807 351.866 527.883 350.634 512.322C349.402 496.761 330.561 500.861 330.561 500.861C330.561 500.861 323.186 473.209 303.821 469.524C284.456 465.839 279.121 480.38 279.121 480.38C279.121 480.38 274.248 462.159 246.189 469.117C218.13 476.075 227.755 505.975 227.755 505.975C227.755 505.975 208.507 503.93 199.696 513.763C190.885 523.596 203.171 549.807 203.171 549.807C203.171 549.807 186.783 556.363 180.645 571.773C174.507 587.183 188.223 602.439 188.223 602.439C185.379 603.35 182.778 604.891 180.613 606.948C178.449 609.005 176.777 611.524 175.723 614.318C172.038 623.942 180.695 632.753 180.695 632.753C199.204 628.49 218.032 625.757 236.989 624.58C238.912 624.448 240.683 624.349 242.289 624.272C248.58 623.953 252.32 623.942 252.32 623.942C252.32 623.942 253.277 626.284 256.555 620.884C259.667 615.759 254.168 562.467 253.596 557.078C257.727 557.177 263.727 556.451 266.927 551.996C272.119 544.763 269.347 539.296 269.347 539.296C269.347 539.296 278.124 543.256 285.087 538.064ZM287.483 486.133C291.696 482.477 298.533 479.259 305.503 480.981C312.389 482.683 320.04 489.376 325.569 506.95L325.956 508.181L327.232 507.982C329.762 507.586 332.625 507.545 335.212 508.12C337.799 508.695 339.99 509.855 341.391 511.763C342.777 513.65 343.557 516.496 342.881 520.798C342.2 525.125 340.056 530.826 335.706 538.241C335.287 538.956 335.526 539.875 336.241 540.294C336.956 540.713 337.875 540.474 338.294 539.759C342.744 532.174 345.083 526.104 345.844 521.264C346.609 516.4 345.79 512.684 343.809 509.987C341.844 507.311 338.901 505.867 335.863 505.192C333.276 504.617 330.533 504.577 328.044 504.849C322.391 487.671 314.39 480.087 306.222 478.069C297.95 476.024 290.138 479.856 285.517 483.867C284.891 484.41 284.824 485.357 285.367 485.983C285.91 486.609 286.858 486.676 287.483 486.133Z" fill="#171717"/>
<path d="M702.559 526.086C703.296 527.131 710.959 538.46 705.419 545.929C699.6 553.771 694.892 538.317 694.892 538.317L693.034 538.251C693.781 515.851 693.144 492.23 687.512 487.951C680.56 482.671 650.697 478.26 627.643 474.598C613.531 472.354 601.971 470.398 599.76 468.698C593.941 464.221 590.136 460.646 591.708 455.939C593.28 451.232 610.726 452.584 624.608 461.539C638.49 470.494 600.432 444.755 613.642 437.814C626.676 430.973 641.899 452.443 642.306 453.026C642.02 452.421 630.515 428.377 637.367 425.506C644.308 422.591 655.945 450.793 655.945 450.793C655.945 450.793 655.571 430.874 665.503 433.777C675.435 436.68 673.632 459.077 673.632 459.077C673.632 459.077 702.285 460.418 705.871 474.52C709.457 488.622 706.762 514.82 706.762 514.82C706.762 514.82 723.546 527.128 719.301 534.959C715.208 542.486 703.494 527.307 702.559 526.086Z" fill="#171717"/>
<path d="M511.139 304.088C512.393 304.61 513.533 305.374 514.492 306.336C515.452 307.299 516.212 308.441 516.73 309.697C517.248 310.954 517.513 312.3 517.511 313.659C517.508 315.018 517.238 316.363 516.716 317.617L505.474 344.587L464.062 326.912L473.753 303.648L475.153 300.305C475.675 299.05 476.44 297.91 477.403 296.95C478.367 295.99 479.51 295.23 480.767 294.712C482.025 294.194 483.372 293.929 484.732 293.932C486.091 293.934 487.437 294.205 488.693 294.728L511.139 304.088Z" fill="url(#paint1_linear_510_1396)"/>
<path d="M505.473 344.587L490 381.743C488.941 384.276 486.92 386.284 484.381 387.328C481.842 388.372 478.993 388.365 476.459 387.309L454.01 377.959C452.755 377.436 451.615 376.671 450.655 375.708C449.695 374.745 448.935 373.602 448.417 372.344C447.899 371.087 447.634 369.74 447.637 368.38C447.639 367.02 447.91 365.674 448.433 364.419L464.063 326.912L505.473 344.587Z" fill="#171717"/>
<path d="M364.706 386.165C365.401 388.821 365.013 391.644 363.627 394.014C362.241 396.384 359.97 398.106 357.315 398.803L333.787 404.962C332.472 405.306 331.101 405.389 329.754 405.204C328.407 405.019 327.11 404.571 325.936 403.884C324.763 403.198 323.736 402.287 322.914 401.204C322.093 400.12 321.493 398.886 321.149 397.571L310.849 358.271L354.505 347.227L364.706 386.165Z" fill="#171717"/>
<path d="M347.106 318.97L354.506 347.227L310.85 358.271L304.459 333.885L303.535 330.385C302.839 327.729 303.227 324.906 304.614 322.535C306 320.165 308.271 318.443 310.927 317.747L334.465 311.577C335.781 311.232 337.151 311.149 338.499 311.334C339.846 311.519 341.144 311.967 342.318 312.654C343.492 313.341 344.519 314.252 345.34 315.336C346.162 316.419 346.762 317.655 347.106 318.97V318.97Z" fill="url(#paint2_linear_510_1396)"/>
<path d="M316.231 694.5L316.22 694.786L315.11 721.591C302.867 722.108 290.61 723.691 290.61 723.691C290.61 723.691 308.638 707.104 301.873 703.013C299.473 701.55 295.439 703.101 291.237 705.708L292.282 694.785L292.458 692.938C292.458 692.938 296.554 693.648 316.231 694.5Z" fill="url(#paint3_linear_510_1396)"/>
<path d="M296.192 621.789C296.192 621.789 299.833 656.305 269.728 661.629C239.623 666.953 242.285 624.275 242.285 624.275C248.576 623.956 252.316 623.945 252.316 623.945C252.316 623.945 257.233 645.592 270.344 643.986C283.455 642.38 283.444 623.945 283.444 623.945C283.444 623.945 288.239 622.933 296.192 621.789Z" fill="url(#paint4_linear_510_1396)"/>
<path d="M275.468 718.584C275.721 732.421 272.323 752.274 266.339 762.625C265.205 764.762 263.639 766.638 261.739 768.135C259.429 769.774 252.665 771.347 243.129 772.335C243.129 772.335 248.265 717.856 245.163 701.621C258.463 701.995 268.863 702.336 271.563 703.821C274.093 705.209 275.325 710.994 275.468 718.584Z" fill="url(#paint5_linear_510_1396)"/>
<path d="M317.606 748.106C318.376 748.359 401.234 775.351 435.406 739.273C445.064 729.073 450.827 713.843 449.749 691.537C447.021 635.286 396.337 620.602 351.636 618.711C335.376 618.119 319.095 618.847 302.953 620.888C300.501 621.188 298.246 621.493 296.189 621.788C288.236 622.932 283.441 623.944 283.441 623.944C283.441 623.944 283.441 642.379 270.341 643.985C257.241 645.591 252.313 623.944 252.313 623.944C252.313 623.944 248.573 623.955 242.282 624.274C240.676 624.351 238.905 624.45 236.982 624.582C218.025 625.759 199.197 628.492 180.688 632.755C140.464 642.346 98.4579 662.376 99.5349 704.228C99.6585 716.239 103.807 727.861 111.316 737.236C136.548 768.836 196.45 774.92 232.857 773.105C236.542 772.929 239.985 772.665 243.131 772.335C252.667 771.345 259.431 769.772 261.741 768.135C263.641 766.638 265.207 764.762 266.341 762.625C272.325 752.274 275.723 732.425 275.47 718.584C275.327 710.994 274.095 705.209 271.57 703.823C268.875 702.338 258.47 701.997 245.17 701.623C242.476 701.535 239.66 701.458 236.77 701.37C210.57 700.57 177.891 698.87 168.355 689.084C160.567 681.084 170.401 674.95 170.401 674.95" stroke="#171717" stroke-width="3" stroke-linecap="round" stroke-linejoin="round"/>
<path d="M411.243 690.713C411.243 690.713 368.093 696.388 326.769 694.913C325.537 694.869 324.338 694.825 323.194 694.781C320.675 694.681 318.365 694.594 316.231 694.495C296.554 693.648 292.462 692.933 292.462 692.933L292.286 694.781L291.241 705.701" stroke="#171717" stroke-width="3" stroke-linecap="round" stroke-linejoin="round"/>
<path d="M236.762 701.369C237.496 725.349 236.189 749.348 232.857 773.106" stroke="#171717" stroke-width="3" stroke-linecap="round" stroke-linejoin="round"/>
<path d="M304.594 734.016C316.473 734.071 336.701 735.083 336.701 741.308C336.701 745.246 327.627 747.182 317.601 748.108H317.6C308.9 748.817 300.17 749.078 291.444 748.889C291.444 748.889 336.497 751.957 335.672 759.734C334.847 767.511 266.344 762.627 266.344 762.627" stroke="#171717" stroke-width="3" stroke-linecap="round" stroke-linejoin="round"/>
<path d="M304.594 734.016C299.612 734.17 296.147 734.137 296.147 734.137C296.147 734.137 299.645 733.994 304.594 734.016Z" stroke="#171717" stroke-width="3" stroke-linecap="round" stroke-linejoin="round"/>
<path d="M275.468 718.585C275.468 718.585 283.63 710.412 291.241 705.705C295.441 703.098 299.48 701.547 301.877 703.01C308.642 707.101 290.614 723.688 290.614 723.688C290.614 723.688 302.867 722.104 315.114 721.588C317.093 721.511 319.073 721.456 320.998 721.445C330.985 721.357 339.565 722.345 339.565 725.945C339.565 732.116 317.225 733.645 304.598 734.019" stroke="#171717" stroke-width="3" stroke-linecap="round" stroke-linejoin="round"/>
<path d="M320.994 721.443L323.194 694.781" stroke="#171717" stroke-width="3" stroke-linecap="round" stroke-linejoin="round"/>
<path d="M315.11 721.586L316.22 694.781" stroke="#171717" stroke-width="3" stroke-linecap="round" stroke-linejoin="round"/>
<path d="M292.286 694.782C292.286 694.782 275.941 676.513 270.068 681.704C264.195 686.895 274.225 694.782 274.225 694.782C274.225 694.782 235.825 685.345 234.914 693.308C234.003 701.271 245.165 701.608 245.165 701.608V701.619C248.265 717.854 243.131 772.333 243.131 772.333" stroke="#171717" stroke-width="3" stroke-linecap="round" stroke-linejoin="round"/>
<path d="M242.285 624.275C242.285 624.275 239.623 666.963 269.728 661.629C299.833 656.295 296.192 621.789 296.192 621.789" stroke="#171717" stroke-width="3" stroke-linecap="round" stroke-linejoin="round"/>
<path d="M236.982 624.585C236.982 624.585 226.225 676.385 269.276 669.209C312.327 662.033 302.955 620.889 302.955 620.889" stroke="#171717" stroke-width="3" stroke-linecap="round" stroke-linejoin="round"/>
<path d="M252.315 623.947C252.315 623.947 253.272 626.29 256.55 620.889C259.662 615.764 254.163 562.472 253.591 557.083C253.558 556.797 253.547 556.643 253.547 556.643" stroke="#171717" stroke-width="3" stroke-linecap="round" stroke-linejoin="round"/>
<path d="M283.444 623.946C283.444 623.946 277.306 622.307 280.584 617.259C283.862 612.211 335.327 578.343 308.301 519.6" stroke="#171717" stroke-width="3" stroke-linecap="round" stroke-linejoin="round"/>
<path d="M291.912 582.027C291.912 582.027 286.16 582.797 281.441 581.081C279.555 580.467 277.914 579.269 276.755 577.66C272.795 571.787 271.311 577.385 269.804 583.127C268.682 587.373 269.221 596.359 276.018 598.152C278.394 598.79 281.54 598.552 285.632 596.92" stroke="#171717" stroke-width="3" stroke-linecap="round" stroke-linejoin="round"/>
<path d="M276.018 598.153C276.018 598.153 271.256 585.853 281.441 581.082" stroke="#171717" stroke-width="3" stroke-linecap="round" stroke-linejoin="round"/>
<path d="M291.912 562.372C291.912 562.372 302.284 560.052 300.512 567.696C298.74 575.34 291.912 568.653 291.912 568.653" stroke="#171717" stroke-width="3" stroke-linecap="round" stroke-linejoin="round"/>
<path d="M294.981 547.084C294.981 547.084 296.554 539.164 301.745 539.846C306.936 540.528 308.301 547.084 308.301 547.084" stroke="#171717" stroke-width="3" stroke-linecap="round" stroke-linejoin="round"/>
<path d="M294.981 535.887C294.981 535.887 299.15 531.103 309.94 535.205" stroke="#171717" stroke-width="3" stroke-linecap="round" stroke-linejoin="round"/>
<path d="M280.628 549.811C280.628 549.811 277.58 544.488 272.938 545.027" stroke="#171717" stroke-width="3" stroke-linecap="round" stroke-linejoin="round"/>
<path d="M289.185 523.6L289.196 523.611V523.622C289.559 524.022 295.103 530.057 302.461 527.56C305.827 526.416 307.488 523.028 308.302 519.596C308.924 516.741 309.153 513.814 308.984 510.896" stroke="#171717" stroke-width="3" stroke-linecap="round" stroke-linejoin="round"/>
<path d="M249.181 556.643C250.636 556.912 252.112 557.059 253.592 557.083C257.728 557.183 263.722 556.456 266.923 552.001C272.115 544.764 269.343 539.301 269.343 539.301C269.343 539.301 278.12 543.261 285.083 538.069C291.847 533.031 289.339 524.122 289.196 523.627" stroke="#171717" stroke-width="3" stroke-linecap="round" stroke-linejoin="round"/>
<path d="M180.688 632.757C180.688 632.757 172.031 623.946 175.716 614.322C176.77 611.528 178.442 609.009 180.606 606.952C182.771 604.895 185.372 603.353 188.216 602.443C188.216 602.443 174.5 587.187 180.638 571.777C186.776 556.367 203.164 549.811 203.164 549.811C203.164 549.811 190.878 523.6 199.689 513.767C208.5 503.934 227.748 505.979 227.748 505.979C227.748 505.979 218.123 476.079 246.182 469.121C274.241 462.163 279.114 480.384 279.114 480.384C279.114 480.384 284.449 465.843 303.814 469.528C323.179 473.213 330.554 500.865 330.554 500.865C330.554 500.865 349.395 496.765 350.627 512.326C351.859 527.887 338.341 549.811 338.341 549.811C338.341 549.811 359.02 548.37 360.251 566.706C360.674 571.852 359.581 577.009 357.106 581.541C354.631 586.072 350.884 589.78 346.326 592.206C346.326 592.206 361.483 593.438 361.274 604.295C361.254 607.347 360.329 610.325 358.616 612.851C356.903 615.376 354.478 617.337 351.65 618.484" stroke="#171717" stroke-width="3" stroke-linecap="round" stroke-linejoin="round"/>
<path d="M39.6562 741.308L49.5113 740.747L111.316 737.238" stroke="#171717" stroke-width="3" stroke-linecap="round" stroke-linejoin="round"/>
<path d="M435.408 739.273H566.266H613.453" stroke="#171717" stroke-width="3" stroke-linecap="round" stroke-linejoin="round"/>
<path d="M698.478 599.43C698.478 599.43 865.017 598.99 864.126 683.596C863.235 768.202 715.043 772.69 693.111 755.674C690.546 753.649 688.251 751.306 686.28 748.701C676.425 735.93 671.53 716.022 671.948 701.501C671.992 700.038 672.091 698.63 672.248 697.288C673.04 690.216 675.348 685.013 679.232 683.594C692.663 678.677 779.513 685.387 788.466 673.75C797.419 662.113 786.673 651.806 786.673 651.806" stroke="#171717" stroke-width="3" stroke-linecap="round" stroke-linejoin="round"/>
<path d="M662.665 732.4L662.137 732.433C661.499 732.455 660.311 732.533 658.694 732.633C649.257 733.26 625.377 735.24 613.718 739.903V739.914C609.384 741.63 606.744 743.742 607.151 746.283C608.944 757.469 686.269 748.714 686.269 748.714" stroke="#171717" stroke-width="3" stroke-linecap="round" stroke-linejoin="round"/>
<path d="M649.849 718.012C638.828 718.045 617.776 718.639 609.174 722.532C606.787 723.61 605.358 724.932 605.358 726.58C605.358 734.841 645.725 733.334 658.693 732.63C660.31 732.553 661.509 732.476 662.136 732.43" stroke="#171717" stroke-width="3" stroke-linecap="round" stroke-linejoin="round"/>
<path d="M649.85 718.011C654.096 718.088 656.85 718.066 656.85 718.066C656.85 718.066 654.085 717.999 649.85 718.011Z" stroke="#171717" stroke-width="3" stroke-linecap="round" stroke-linejoin="round"/>
<path d="M671.925 697.256C671.925 697.256 651.917 678.678 645.648 684.046C639.379 689.414 656.848 704.197 656.848 704.197C656.848 704.197 604.019 700.611 603.568 709.564C603.216 716.494 635.322 717.792 649.852 718.012" stroke="#171717" stroke-width="3" stroke-linecap="round" stroke-linejoin="round"/>
<path d="M566.266 739.273L562.384 669.273C562.384 669.273 500.062 667.473 475.973 649.573C432.262 617.115 421.131 538.646 420.46 522.257C420.26 517.33 427.335 514.448 437.333 512.82C449.696 510.807 466.514 510.73 479.559 511.082C491.097 511.401 499.699 512.072 499.699 512.072C499.699 512.072 509.774 574.812 525.217 589.364C540.66 603.916 631.327 603.164 631.327 603.164" stroke="#171717" stroke-width="3" stroke-linecap="round" stroke-linejoin="round"/>
<path d="M698.026 603.236V590.036C698.026 590.036 700.27 584.657 692.439 584.436C691.856 584.414 691.086 584.392 690.139 584.37C682.989 584.194 666.27 583.853 654.105 583.6C646.087 583.435 640.048 583.314 640.048 583.314C640.048 583.314 632.668 581.301 632.668 590.925V605.701" stroke="#171717" stroke-width="3" stroke-linecap="round" stroke-linejoin="round"/>
<path d="M702.501 526.01C702.522 526.033 702.54 526.059 702.556 526.087C703.293 527.132 710.956 538.461 705.416 545.93C699.597 553.772 694.889 538.318 694.889 538.318" stroke="#171717" stroke-width="3" stroke-linecap="round" stroke-linejoin="round"/>
<path d="M642.315 453.039L642.304 453.028C642.018 452.423 630.513 428.379 637.365 425.508C644.306 422.593 655.943 450.795 655.943 450.795C655.943 450.795 655.569 430.876 665.501 433.779C675.433 436.682 673.63 459.079 673.63 459.079C673.63 459.079 702.283 460.42 705.869 474.522C709.455 488.624 706.76 514.822 706.76 514.822C706.76 514.822 723.544 527.13 719.299 534.961C715.207 542.485 703.493 527.306 702.558 526.085" stroke="#171717" stroke-width="3" stroke-linecap="round" stroke-linejoin="round"/>
<path d="M690.2 581.301C690.2 581.301 692.3 560.37 693.038 538.25C693.785 515.85 693.148 492.229 687.516 487.95C680.564 482.67 650.701 478.259 627.647 474.597C613.535 472.353 601.975 470.397 599.764 468.697C593.945 464.22 590.14 460.645 591.712 455.938C593.284 451.231 610.73 452.583 624.612 461.538C638.494 470.493 600.436 444.754 613.646 437.813C626.68 430.972 641.903 452.442 642.31 453.025" stroke="#171717" stroke-width="3" stroke-linecap="round" stroke-linejoin="round"/>
<path d="M661.025 532.5C661.025 532.5 653.765 534.589 652.654 533.247C651.543 531.905 655.668 493.177 655.668 493.177L638.568 492.066" stroke="#171717" stroke-width="3" stroke-linecap="round" stroke-linejoin="round"/>
<path d="M643.184 503.922L642.59 512.062" stroke="#171717" stroke-width="3" stroke-linecap="round" stroke-linejoin="round"/>
<path d="M671.914 502.504V511.391" stroke="#171717" stroke-width="3" stroke-linecap="round" stroke-linejoin="round"/>
<path d="M660.651 542.199C663.315 542.939 666.109 543.082 668.834 542.617C671.153 542.222 673.269 541.051 674.834 539.295C679.189 534.268 683.897 557.995 670.709 557.829C668.311 557.708 665.96 557.113 663.791 556.08" stroke="#171717" stroke-width="3" stroke-linecap="round" stroke-linejoin="round"/>
<path d="M670.715 557.345C670.715 557.345 674.004 545.845 668.834 542.617" stroke="#171717" stroke-width="3" stroke-linecap="round" stroke-linejoin="round"/>
<path d="M654.15 581.3C654.15 581.3 658.638 569.586 651.62 564.207C644.602 558.828 636.991 564.812 634.011 556.299C631.031 547.786 627.29 476.906 627.29 476.906" stroke="#171717" stroke-width="3" stroke-linecap="round" stroke-linejoin="round"/>
<path d="M447.211 499.6C447.208 499.555 447.201 499.511 447.189 499.467C446.782 496.673 440.018 451.301 431.879 452.929C423.486 454.601 437.026 510.917 437.026 510.917" stroke="#171717" stroke-width="3" stroke-linecap="round" stroke-linejoin="round"/>
<path d="M459.7 495.795C459.436 484.884 457.951 445.795 450.24 446.661C441.551 447.629 446.874 496.587 447.193 499.469" stroke="#171717" stroke-width="3" stroke-linecap="round" stroke-linejoin="round"/>
<path d="M459.739 498.006C459.75 498.391 459.75 498.589 459.75 498.589C459.75 498.589 459.75 498.391 459.739 498.006Z" stroke="#171717" stroke-width="3" stroke-linecap="round" stroke-linejoin="round"/>
<path d="M459.739 498.006C459.739 497.72 459.728 497.335 459.717 496.862C459.717 496.719 459.717 496.554 459.706 496.378C459.695 496.202 459.706 496.004 459.695 495.795" stroke="#171717" stroke-width="3" stroke-linecap="round" stroke-linejoin="round"/>
<path d="M479.559 510.919C479.559 510.919 499.259 493.551 493.099 488.635C486.939 483.719 471.156 498.028 471.156 498.028C471.156 498.028 479.556 445.199 468.923 444.759C459.75 444.374 459.574 484.708 459.695 495.795" stroke="#171717" stroke-width="3" stroke-linecap="round" stroke-linejoin="round"/>
<path d="M841.61 733.092L913.38 733.499" stroke="#171717" stroke-width="3" stroke-linecap="round" stroke-linejoin="round"/>
<path d="M117.553 320.168L245.584 260.365L294.267 237.63L303.814 233.164L306.696 244.416L317.002 284.685L322.095 304.593" stroke="#171717" stroke-width="3" stroke-linecap="round" stroke-linejoin="round"/>
<path d="M49.5117 740.747V417.952V359.04V351.957L56.9797 348.47L117.553 320.18" stroke="#171717" stroke-width="3" stroke-linecap="round" stroke-linejoin="round"/>
<path d="M904.35 733.092V557.093V426.378V410.187L890.689 402.278L827.003 365.42L591.345 229.04L552.704 206.679L539.439 199.002L533.994 213.037L520.146 248.729L504.506 289.063" stroke="#171717" stroke-width="3" stroke-linecap="round" stroke-linejoin="round"/>
<path d="M354.509 347.227L364.709 386.165C365.404 388.821 365.016 391.644 363.63 394.014C362.244 396.384 359.974 398.106 357.318 398.803L333.79 404.962C332.475 405.307 331.105 405.389 329.758 405.204C328.411 405.019 327.113 404.571 325.94 403.885C324.766 403.198 323.739 402.287 322.918 401.204C322.096 400.121 321.496 398.886 321.152 397.571L310.852 358.271L304.461 333.885L303.537 330.385C302.841 327.729 303.229 324.905 304.616 322.535C306.002 320.165 308.273 318.442 310.929 317.747L334.467 311.577C335.782 311.232 337.152 311.15 338.499 311.334C339.846 311.519 341.144 311.968 342.317 312.654C343.491 313.34 344.518 314.251 345.339 315.335C346.161 316.418 346.761 317.652 347.105 318.968L354.509 347.227Z" stroke="#171717" stroke-width="3" stroke-linecap="round" stroke-linejoin="round"/>
<path d="M300.042 334.512L292.716 336.426L286.81 313.9L351.001 297.082L356.908 319.608L351.518 321.016" stroke="#171717" stroke-width="3" stroke-linecap="round" stroke-linejoin="round"/>
<path d="M310.854 358.271L354.51 347.227" stroke="#171717" stroke-width="3" stroke-linecap="round" stroke-linejoin="round"/>
<path d="M245.583 260.365L317.001 284.685" stroke="#171717" stroke-width="3" stroke-linecap="round" stroke-linejoin="round"/>
<path d="M49.5117 417.953L117.553 320.181V320.17" stroke="#171717" stroke-width="3" stroke-linecap="round" stroke-linejoin="round"/>
<path d="M520.146 248.728L591.345 229.039" stroke="#171717" stroke-width="3" stroke-linecap="round" stroke-linejoin="round"/>
<path d="M827.003 365.42L904.35 557.093" stroke="#171717" stroke-width="3" stroke-linecap="round" stroke-linejoin="round"/>
<path d="M505.473 344.587L490 381.743C488.941 384.276 486.92 386.284 484.381 387.328C481.842 388.372 478.993 388.365 476.459 387.309L454.01 377.959C452.755 377.436 451.615 376.671 450.655 375.708C449.695 374.745 448.935 373.602 448.417 372.344C447.899 371.087 447.634 369.74 447.637 368.38C447.639 367.02 447.91 365.674 448.433 364.419L464.063 326.912L473.754 303.648L475.154 300.305C475.677 299.05 476.442 297.91 477.405 296.95C478.368 295.99 479.511 295.23 480.769 294.712C482.026 294.194 483.373 293.929 484.733 293.932C486.093 293.934 487.439 294.205 488.694 294.728L511.143 304.088C512.398 304.61 513.537 305.374 514.497 306.336C515.456 307.299 516.216 308.441 516.734 309.697C517.252 310.954 517.518 312.3 517.515 313.659C517.513 315.018 517.242 316.363 516.72 317.617L505.473 344.587Z" stroke="#171717" stroke-width="3" stroke-linecap="round" stroke-linejoin="round"/>
<path d="M469.858 301.471L462.862 298.557L471.827 277.053L533.082 302.571L524.117 324.075L518.981 321.93" stroke="#171717" stroke-width="3" stroke-linecap="round" stroke-linejoin="round"/>
<path d="M464.062 326.912L505.474 344.587" stroke="#171717" stroke-width="3" stroke-linecap="round" stroke-linejoin="round"/>
<path d="M56.9789 348.471C57.3961 349.425 57.6096 350.455 57.6059 351.496C57.6072 352.49 57.4124 353.476 57.0328 354.395C56.6531 355.314 56.0959 356.15 55.3931 356.853C54.6904 357.557 53.8558 358.116 52.937 358.497C52.0183 358.878 51.0335 359.074 50.0389 359.074C49.8624 359.074 49.686 359.063 49.5109 359.041C48.1729 358.946 46.8841 358.498 45.7766 357.741C44.6691 356.984 43.7827 355.947 43.2083 354.734C42.6339 353.522 42.3921 352.179 42.5076 350.843C42.6232 349.507 43.092 348.225 43.866 347.129C44.64 346.034 45.6914 345.164 46.9123 344.609C48.1333 344.053 49.48 343.832 50.8144 343.969C52.1487 344.105 53.4228 344.594 54.5061 345.385C55.5893 346.176 56.4427 347.241 56.9789 348.471V348.471Z" stroke="#171717" stroke-width="3" stroke-linecap="round" stroke-linejoin="round"/>
<path d="M294.266 237.63C293.983 236.684 293.838 235.702 293.837 234.715C293.838 232.17 294.803 229.719 296.537 227.855C298.27 225.991 300.645 224.852 303.184 224.667C305.723 224.482 308.238 225.264 310.223 226.857C312.209 228.45 313.519 230.735 313.889 233.253C314.26 235.771 313.664 238.337 312.221 240.434C310.779 242.531 308.596 244.005 306.111 244.559C303.627 245.113 301.025 244.707 298.827 243.421C296.63 242.136 295.001 240.067 294.266 237.63V237.63Z" stroke="#171717" stroke-width="3" stroke-linecap="round" stroke-linejoin="round"/>
<path d="M533.994 213.037C531.011 211.497 528.696 208.918 527.487 205.786C526.278 202.654 526.259 199.188 527.434 196.043C528.609 192.899 530.896 190.294 533.862 188.722C536.828 187.15 540.268 186.72 543.53 187.514C546.791 188.307 549.649 190.269 551.562 193.028C553.474 195.787 554.309 199.151 553.908 202.484C553.507 205.817 551.898 208.887 549.386 211.113C546.873 213.34 543.632 214.568 540.275 214.565C538.089 214.569 535.934 214.045 533.994 213.037V213.037Z" stroke="#171717" stroke-width="3" stroke-linecap="round" stroke-linejoin="round"/>
<path d="M890.689 402.277C892.141 399.987 894.161 398.112 896.553 396.834C898.944 395.557 901.626 394.92 904.337 394.987C907.047 395.054 909.694 395.822 912.02 397.215C914.346 398.609 916.271 400.581 917.608 402.94C918.945 405.299 919.649 407.964 919.65 410.676C919.651 413.387 918.95 416.053 917.615 418.413C916.28 420.773 914.357 422.747 912.032 424.142C909.707 425.538 907.061 426.308 904.35 426.377C904.218 426.388 904.086 426.388 903.95 426.388C901.138 426.39 898.377 425.636 895.956 424.205C893.535 422.775 891.542 420.72 890.187 418.256C888.831 415.792 888.162 413.009 888.25 410.199C888.338 407.388 889.179 404.652 890.685 402.277H890.689Z" stroke="#171717" stroke-width="3" stroke-linecap="round" stroke-linejoin="round"/>
<path d="M694.035 223.555C650.894 240.136 617.876 280.664 610.357 326.265C608.449 337.839 608.357 350.665 615.244 360.165C618.199 364.242 622.245 367.402 626.918 369.28C631.59 371.158 636.698 371.677 641.653 370.778C646.608 369.879 651.207 367.599 654.923 364.2C658.638 360.8 661.317 356.42 662.651 351.565C665.051 342.831 661.42 331.665 652.703 329.213C647.37 327.713 641.392 329.941 637.703 334.071C634.014 338.201 632.439 343.938 632.628 349.476C632.867 354.584 634.457 359.537 637.237 363.83C640.017 368.122 643.887 371.6 648.451 373.907C653.886 376.569 660.018 377.42 665.69 379.529C671.362 381.638 676.976 385.597 678.346 391.492C679.804 397.761 675.167 404.769 668.827 405.878C662.487 406.987 655.746 401.969 654.989 395.578" stroke="#171717" stroke-width="3" stroke-linecap="round" stroke-linejoin="round"/>
<path d="M609.216 526.747L592.816 510.535" stroke="#171717" stroke-width="3" stroke-linecap="round" stroke-linejoin="round"/>
<path d="M557.288 539.535L593.018 538.51" stroke="#171717" stroke-width="3" stroke-linecap="round" stroke-linejoin="round"/>
<path d="M582.913 568.566L598.438 553.035" stroke="#171717" stroke-width="3" stroke-linecap="round" stroke-linejoin="round"/>
<path d="M832.957 574.767L825.84 560.078" stroke="#171717" stroke-width="3" stroke-linecap="round" stroke-linejoin="round"/>
<path d="M821.31 572.5L835.289 563.188" stroke="#171717" stroke-width="3" stroke-linecap="round" stroke-linejoin="round"/>
<path d="M775.605 487.099L783.229 466.859" stroke="#171717" stroke-width="3" stroke-linecap="round" stroke-linejoin="round"/>
<path d="M769.893 474.078C775.774 477.757 782.512 479.842 789.444 480.128" stroke="#171717" stroke-width="3" stroke-linecap="round" stroke-linejoin="round"/>
<path d="M563.508 371.362C562.434 366.794 560.307 362.54 557.297 358.939" stroke="#171717" stroke-width="3" stroke-linecap="round" stroke-linejoin="round"/>
<path d="M552.639 369.809L566.615 360.492" stroke="#171717" stroke-width="3" stroke-linecap="round" stroke-linejoin="round"/>
<path d="M380.938 577.015L391 565.338" stroke="#171717" stroke-width="3" stroke-linecap="round" stroke-linejoin="round"/>
<path d="M389.533 574.83L382.241 565.758" stroke="#171717" stroke-width="3" stroke-linecap="round" stroke-linejoin="round"/>
<path d="M405.257 550.662C403.052 544.915 402.004 538.788 402.173 532.635C402.342 526.482 403.725 520.422 406.242 514.805" stroke="#171717" stroke-width="3" stroke-linecap="round" stroke-linejoin="round"/>
<path d="M189.426 477.673L185.517 467.59" stroke="#171717" stroke-width="3" stroke-linecap="round" stroke-linejoin="round"/>
<path d="M178.405 477.732C184.135 475.306 189.391 471.89 193.934 467.639" stroke="#171717" stroke-width="3" stroke-linecap="round" stroke-linejoin="round"/>
<path d="M121 631.448L116.357 617.467" stroke="#171717" stroke-width="3" stroke-linecap="round" stroke-linejoin="round"/>
<path d="M112.41 629.133L125.61 619.816" stroke="#171717" stroke-width="3" stroke-linecap="round" stroke-linejoin="round"/>
<path d="M80.2557 713.536C77.459 707.635 76.5348 701.02 77.6074 694.579C78.6799 688.138 81.6978 682.18 86.2557 677.504" stroke="#171717" stroke-width="3" stroke-linecap="round" stroke-linejoin="round"/>
<path d="M161.301 587.993C159.9 583.975 159.529 579.671 160.224 575.473C160.918 571.275 162.655 567.319 165.275 563.967" stroke="#171717" stroke-width="3" stroke-linecap="round" stroke-linejoin="round"/>
<path d="M97.1495 531.249C99.7735 524.881 109.307 523.175 114.483 527.719C119.659 532.263 119.683 541.145 115.116 546.297C110.549 551.449 102.458 552.697 96.1315 549.98C89.8045 547.263 85.3205 541.099 83.7005 534.399C82.0805 527.699 83.0895 520.567 85.5465 514.133C89.3347 504.31 96.2878 496.03 105.307 490.599C114.037 485.378 124.307 483.08 132.861 477.581C138.959 473.57 143.95 468.09 147.375 461.645C150.801 455.2 152.552 447.998 152.466 440.699C152.285 432.585 148.739 423.484 141.021 420.973C130.944 417.694 120.486 429.873 123.509 440.032C126.532 450.191 139.19 455.341 149.353 452.337C159.516 449.333 166.867 440.037 170.203 429.982C173.539 419.927 173.47 409.088 173.077 398.498C172.684 387.908 172.014 377.178 174.237 366.816" stroke="#171717" stroke-width="3" stroke-linecap="round" stroke-linejoin="round"/>
<path d="M882.6 697.455L882.445 697.819C886.407 683.698 886.262 668.739 882.025 654.697" stroke="#171717" stroke-width="3" stroke-linecap="round" stroke-linejoin="round"/>
<path d="M546.364 447.075L541.73 454.014C541.59 454.223 541.39 454.385 541.155 454.477C540.921 454.569 540.664 454.587 540.419 454.528C540.174 454.469 539.953 454.337 539.785 454.149C539.618 453.961 539.512 453.726 539.482 453.476L538.491 445.191C538.462 444.949 538.363 444.721 538.204 444.536C538.046 444.351 537.837 444.217 537.602 444.151L529.571 441.889C529.33 441.82 529.116 441.679 528.957 441.484C528.798 441.29 528.702 441.052 528.683 440.802C528.663 440.552 528.72 440.302 528.846 440.085C528.972 439.868 529.161 439.695 529.388 439.589L536.961 436.089C537.182 435.987 537.368 435.821 537.495 435.613C537.622 435.406 537.685 435.165 537.675 434.922L537.345 426.585C537.335 426.333 537.402 426.084 537.538 425.872C537.673 425.659 537.871 425.494 538.104 425.397C538.336 425.3 538.593 425.277 538.839 425.331C539.085 425.385 539.309 425.513 539.48 425.698L545.151 431.819C545.317 431.997 545.532 432.123 545.769 432.179C546.005 432.236 546.254 432.221 546.482 432.137L554.309 429.247C554.545 429.16 554.802 429.148 555.045 429.212C555.288 429.276 555.506 429.412 555.669 429.603C555.833 429.795 555.934 430.031 555.959 430.281C555.984 430.531 555.931 430.783 555.809 431.003L551.741 438.288C551.622 438.5 551.569 438.743 551.589 438.986C551.608 439.229 551.699 439.461 551.85 439.652L557.017 446.203C557.173 446.4 557.265 446.641 557.28 446.893C557.295 447.144 557.233 447.394 557.101 447.609C556.97 447.824 556.776 447.993 556.545 448.094C556.314 448.196 556.058 448.224 555.811 448.175L547.625 446.557C547.387 446.51 547.141 446.533 546.917 446.626C546.692 446.718 546.5 446.874 546.364 447.075V447.075Z" fill="#171717"/>
<g opacity="0.1">
<path d="M305.5 522.345C294.857 529.945 283.786 536.157 271.255 540.057C269.994 540.442 268.886 541.213 268.086 542.261C267.287 543.309 266.837 544.582 266.8 545.9C266.553 549.049 263.177 551.9 260.038 551.22C255.889 550.32 251.529 553.12 251.59 557.656C251.823 574.842 252.546 592.005 253.199 609.181C253.372 613.743 255.85 625.661 251.16 628.616C248.754 630.132 244.728 629.116 242.185 628.654C238.585 628.004 235.01 627.354 231.385 626.879C201.311 622.924 170.15 629.125 143.472 643.44C118.843 656.657 94.7583 680.615 98.0063 710.946C101.427 742.885 132.406 755.627 159.293 764.246C193.229 775.12 230.61 778.668 264.971 767.654C275.671 764.224 271.107 747.31 260.311 750.748C231.944 759.783 201.926 757.786 173.511 749.99C160.311 746.367 146.695 742.066 134.711 735.324C124.139 729.378 115.672 720.516 115.136 707.785C113.955 679.785 139.485 660.965 162.503 650.717C175.419 645.014 189.178 641.453 203.239 640.172C210.039 639.564 216.874 639.443 223.691 639.81C230.88 640.188 237.891 641.774 245.051 642.259C252.276 642.749 259.783 640.724 263.743 634.166C267.703 627.608 266.9 619.429 266.709 612.1C266.235 593.946 265.856 575.8 264.939 557.659L256.492 564.094C267.816 566.12 279.407 558.045 278.922 545.903L275.922 551.135C288.431 545.551 300.29 537.844 309.814 527.943C312.505 525.143 308.908 519.913 305.497 522.343L305.5 522.345Z" fill="#171717"/>
</g>
<g opacity="0.1">
<path d="M292.572 690.643C298.914 697.108 310.023 696.151 318.495 696.743C328.595 697.443 338.775 697.511 348.895 697.471C368.841 697.342 388.766 696.153 408.585 693.909C412.785 693.444 416.413 690.643 416.413 686.08C416.413 682.23 412.813 677.758 408.585 678.252C389.085 680.53 369.498 681.852 349.876 682.36C340.062 682.611 330.265 682.486 320.451 682.402C315.877 682.362 311.306 682.37 306.732 682.275C301.643 682.169 297.472 682.143 293.26 685.275C291.507 686.575 290.889 688.939 292.567 690.65L292.572 690.643Z" fill="#171717"/>
</g>
<g opacity="0.1">
<path d="M635.668 486.4C643.855 487.178 652.085 487.1 660.256 488.211C666.413 489.047 675.13 489.632 680.134 493.799C684.915 497.78 683.622 505.499 682.949 510.921C682.018 518.421 680.791 526.057 683.449 533.371C686.949 543.017 701.977 539.232 699.058 529.071C696.614 520.563 699.782 512.161 699.481 503.544C699.181 494.829 696.011 486.637 688.642 481.569C681.579 476.713 672.299 475.643 664.016 474.569C654.106 473.284 643.932 472.604 634.039 474.341C626.739 475.623 629.288 485.796 635.672 486.403L635.668 486.4Z" fill="#171717"/>
</g>
</g>
<defs>
<linearGradient id="paint0_linear_510_1396" x1="274.7" y1="618.506" x2="274.7" y2="773.391" gradientUnits="userSpaceOnUse">
<stop stop-color="#FA9DFF"/>
<stop offset="1" stop-color="#C25DDE"/>
</linearGradient>
<linearGradient id="paint1_linear_510_1396" x1="490.786" y1="293.932" x2="490.786" y2="344.587" gradientUnits="userSpaceOnUse">
<stop stop-color="#FA9DFF"/>
<stop offset="1" stop-color="#C25DDE"/>
</linearGradient>
<linearGradient id="paint2_linear_510_1396" x1="328.852" y1="311.238" x2="328.852" y2="358.271" gradientUnits="userSpaceOnUse">
<stop stop-color="#FA9DFF"/>
<stop offset="1" stop-color="#C25DDE"/>
</linearGradient>
<linearGradient id="paint3_linear_510_1396" x1="303.421" y1="692.938" x2="303.421" y2="723.691" gradientUnits="userSpaceOnUse">
<stop stop-color="#FA9DFF"/>
<stop offset="1" stop-color="#C25DDE"/>
</linearGradient>
<linearGradient id="paint4_linear_510_1396" x1="269.277" y1="621.789" x2="269.277" y2="662.089" gradientUnits="userSpaceOnUse">
<stop stop-color="#FA9DFF"/>
<stop offset="1" stop-color="#C25DDE"/>
</linearGradient>
<linearGradient id="paint5_linear_510_1396" x1="259.305" y1="701.621" x2="259.305" y2="772.335" gradientUnits="userSpaceOnUse">
<stop stop-color="#FA9DFF"/>
<stop offset="1" stop-color="#C25DDE"/>
</linearGradient>
<clipPath id="clip0_510_1396">
<rect width="884" height="590" fill="white" transform="translate(38 185)"/>
</clipPath>
</defs>
</svg>
