<svg width="960" height="960" viewBox="0 0 960 960" fill="none" xmlns="http://www.w3.org/2000/svg">
<g clip-path="url(#clip0_583_1341)">
<path d="M885.069 303.79L882.722 305.447L881.663 303.939C880.992 302.832 880.246 301.771 879.431 300.764C876.275 296.825 872.191 293.729 867.545 291.754L865.245 290.776L864.877 290.65C871.47 272.275 868.052 252.05 839.782 237.25C853.612 236.157 868.536 237.15 878.523 243.935C901.899 259.837 885.069 303.79 885.069 303.79Z" fill="url(#paint0_linear_583_1341)"/>
<path d="M881.664 303.939L882.723 305.447L913.5 349.274C916.844 353.938 918.887 359.409 919.416 365.124C919.946 370.839 918.944 376.591 916.514 381.79L820.104 586.829C817.322 592.781 812.789 597.741 807.112 601.047C801.435 604.353 794.885 605.847 788.336 605.329L725.144 596.135L725.167 595.94C731.513 596.637 737.919 595.338 743.494 592.224C749.068 589.11 753.532 584.336 756.267 578.566L883.252 333.13C885.439 328.518 886.44 323.431 886.162 318.333C885.885 313.236 884.339 308.288 881.664 303.939V303.939Z" fill="#171717"/>
<path d="M746.899 316.113C793.246 337.883 811.932 395.747 788.632 445.338C765.332 494.929 708.86 517.493 662.514 495.712C616.168 473.931 597.485 416.078 620.799 366.475C644.113 316.872 700.557 294.332 746.899 316.113Z" fill="#171717"/>
<path d="M284.9 619.633C202.022 637.433 174.1 740.321 165.812 784.861C164.77 790.481 161.683 795.516 157.145 798.992C152.608 802.469 146.944 804.141 141.246 803.685L139.774 803.57L90.8149 799.635L88.7439 799.474C82.6867 798.99 77.0638 796.14 73.0925 791.541C69.1213 786.942 67.1214 780.964 67.5259 774.901C86.3149 499.313 304.057 512.401 328.91 514.789C328.91 514.789 340.635 676.189 396.255 675.898C389.603 676.299 383.377 679.303 378.922 684.259C374.468 689.215 372.143 695.726 372.45 702.382C372.758 709.039 375.673 715.307 380.565 719.832C385.458 724.356 391.934 726.773 398.595 726.56C405.255 726.348 411.564 723.522 416.158 718.694C420.751 713.866 423.26 707.425 423.141 700.762C423.023 694.099 420.287 687.751 415.525 683.089C410.763 678.428 404.358 675.828 397.694 675.852C454.545 672.745 464.027 509.761 464.027 509.761L464.003 508.061L529.669 507.118L529.715 507.018L678.328 575.951C632.315 598.4 579.709 603.969 542.383 604.601L542.395 605.441C542.395 605.441 565.085 733.141 553.061 808.731C388.615 866.757 250.772 817.706 248.218 816.786C249.564 741.363 285.452 622.194 285.452 622.194L284.9 619.633Z" fill="url(#paint1_linear_583_1341)"/>
<path d="M645.95 271.791L630.647 300.764L529.669 258.812L544.454 227.93L645.95 271.791Z" fill="#171717"/>
<path d="M608.623 342.461L580.157 396.344L518.699 368.028C527.731 357.143 507.607 331.484 507.607 331.484C507.607 331.484 534.14 322.958 527.363 307.793L608.623 342.461Z" fill="url(#paint2_linear_583_1341)"/>
<path d="M553.06 808.725C548.987 834.325 540.944 853.956 526.688 860.63C467.673 888.244 292.588 887.853 266.247 875.254C252.347 868.603 247.699 845.971 248.217 816.78C250.771 817.702 388.614 866.751 553.06 808.725Z" fill="#171717"/>
<path d="M527.368 307.794C534.145 322.959 507.612 331.485 507.612 331.485C507.612 331.485 527.736 357.144 518.704 368.029C516.922 370.021 514.552 371.395 511.938 371.952C501.538 374.679 490.203 370.997 480.975 366.199C474.194 362.628 467.847 358.289 462.059 353.266C463.095 336.939 464.027 324.166 464.027 324.166C464.027 324.166 388.489 305.492 364.533 324.166C358.297 329.033 355.305 342.366 354.293 359.444C353.752 368.568 353.775 378.751 354.178 389.279V389.291C354.028 389.878 348.413 411.391 328.116 404.582C307.543 397.682 316.472 381.973 316.472 381.973C316.472 381.973 295.9 376.831 293.6 363.288C291.3 349.745 305.911 347.318 305.911 347.318C305.911 347.318 290.217 335.673 294.279 321.061C296.407 313.409 302.979 310.648 308.765 309.761C312.037 309.281 315.359 309.257 318.637 309.692C318.637 309.692 306.188 279.638 326.22 267.729C346.252 255.82 363 273.678 363 273.678C363 273.678 361.136 252.024 382.526 245.799C403.916 239.574 417.182 263.933 417.182 263.933C417.182 263.933 420.162 238.757 442.898 241.461C465.634 244.165 464.027 266.101 464.027 266.101C464.027 266.101 477.489 260.21 490.295 259.795C496.095 259.611 501.767 260.543 505.989 263.673C519.521 273.683 495.266 293.992 495.266 293.992C500.144 293.849 505.02 294.332 509.775 295.43C516.69 297.082 524.134 300.557 527.368 307.794Z" fill="#171717"/>
<path d="M463.999 508.059L464.023 509.759C464.023 509.759 454.541 672.743 397.69 675.85C397.206 675.85 396.723 675.861 396.251 675.896C340.631 676.183 328.906 514.787 328.906 514.787C328.906 514.787 419.344 534.934 458.741 508.137L463.999 508.059Z" fill="url(#paint3_linear_583_1341)"/>
<path d="M458.744 499.934V508.134C419.344 534.934 328.909 514.784 328.909 514.784C330.428 514.934 331.222 515.037 331.222 515.037V505.407C331.224 501.312 332.79 497.373 335.601 494.396C338.411 491.418 342.254 489.628 346.341 489.39L364.641 488.343L421.032 485.11L441.789 483.925C443.969 483.8 446.151 484.121 448.202 484.869C450.253 485.617 452.13 486.776 453.718 488.274C455.305 489.773 456.57 491.581 457.434 493.585C458.298 495.59 458.744 497.751 458.744 499.934V499.934Z" fill="url(#paint4_linear_583_1341)"/>
<path d="M457.893 364.645C457.893 364.945 457.881 365.246 457.87 365.546C457.633 370.055 455.644 374.294 452.328 377.359C449.012 380.425 444.63 382.074 440.115 381.957C435.601 381.84 431.31 379.965 428.158 376.731C425.005 373.498 423.239 369.161 423.236 364.645C423.236 364.185 423.259 363.736 423.294 363.287C423.641 358.821 425.705 354.662 429.052 351.684C432.4 348.706 436.771 347.14 441.248 347.316C445.725 347.492 449.96 349.395 453.063 352.626C456.167 355.857 457.899 360.165 457.894 364.645H457.893Z" fill="#171717"/>
<path d="M407.646 363.288C407.68 363.737 407.703 364.188 407.703 364.646C407.716 369.196 405.944 373.569 402.768 376.827C399.591 380.084 395.264 381.966 390.715 382.068C386.167 382.17 381.759 380.484 378.44 377.372C375.121 374.26 373.155 369.97 372.965 365.424C372.774 360.878 374.373 356.439 377.42 353.06C380.466 349.681 384.717 347.631 389.258 347.351C393.799 347.072 398.269 348.584 401.707 351.564C405.145 354.544 407.278 358.753 407.646 363.288V363.288Z" fill="#171717"/>
<path d="M354.178 389.28C353.778 378.752 353.752 368.569 354.293 359.445C355.305 342.37 358.293 329.034 364.533 324.167C388.489 305.493 464.027 324.167 464.027 324.167C464.027 324.167 463.095 336.939 462.059 353.267C461.806 357.26 461.541 361.46 461.277 365.751C460.068 385.841 458.952 407.622 459.148 417.172C459.548 437.066 442.096 441.128 427.069 449.251C424.157 450.829 421.847 453.325 420.499 456.351C415.379 467.373 420.971 484.172 420.971 484.172" stroke="#171717" stroke-width="3" stroke-linecap="round" stroke-linejoin="round"/>
<path d="M364.533 486.61C364.533 486.61 359.965 459.21 356.812 426.801C355.627 414.616 354.638 401.717 354.178 389.291" stroke="#171717" stroke-width="3" stroke-linecap="round" stroke-linejoin="round"/>
<path d="M449.805 331.484L413.664 334.326L414.435 359.536L415.701 401.234L402.296 404.582" stroke="#171717" stroke-width="3" stroke-linecap="round" stroke-linejoin="round"/>
<path d="M311.329 616.974C302.448 616.889 293.585 617.78 284.899 619.632C202.021 637.432 174.099 740.32 165.811 784.86C164.769 790.48 161.682 795.515 157.144 798.992C152.607 802.468 146.943 804.14 141.245 803.684L139.773 803.569L90.8139 799.634L88.7429 799.473C82.6859 798.989 77.0632 796.139 73.0922 791.54C69.1211 786.941 67.1214 780.963 67.5259 774.9C86.3149 499.312 304.057 512.4 328.91 514.788C330.429 514.938 331.223 515.041 331.223 515.041V505.411C331.225 501.317 332.791 497.378 335.602 494.4C338.412 491.423 342.254 489.632 346.342 489.394L364.642 488.347L421.033 485.114L441.79 483.929C443.97 483.803 446.152 484.124 448.204 484.871C450.255 485.618 452.132 486.777 453.72 488.275C455.308 489.774 456.573 491.581 457.438 493.586C458.303 495.59 458.749 497.751 458.75 499.934V508.134L464.008 508.053L529.674 507.11" stroke="#171717" stroke-width="3" stroke-linecap="round" stroke-linejoin="round"/>
<path d="M133.766 825.351C133.767 825.363 133.771 825.375 133.778 825.385V825.397C134.123 827.571 147.01 908.103 134.158 908.667C121.133 909.23 119.384 841.92 119.384 841.92C119.384 841.92 119.89 914.051 111.525 914.983C103.16 915.915 100.295 835.783 100.295 835.783C100.295 835.783 98.9257 911.01 86.7637 910.283C78.8587 909.811 84.3477 809.983 90.7557 800.365" stroke="#171717" stroke-width="3" stroke-linecap="round" stroke-linejoin="round"/>
<path d="M139.679 804.766C139.679 804.766 170.999 859.34 162.439 865.956C154.039 872.456 134.49 827.056 133.777 825.397" stroke="#171717" stroke-width="3" stroke-linecap="round" stroke-linejoin="round"/>
<path d="M285.451 622.187C285.451 622.187 249.563 741.356 248.217 816.779C247.699 845.97 252.347 868.602 266.247 875.253C292.584 887.853 467.673 888.243 526.688 860.629C540.944 853.955 548.988 834.329 553.06 808.724C565.084 733.129 542.394 605.434 542.394 605.434" stroke="#171717" stroke-width="3" stroke-linecap="round" stroke-linejoin="round"/>
<path d="M493.666 602.752C509.858 604.272 526.122 604.886 542.383 604.593C579.709 603.961 632.315 598.393 678.328 575.943" stroke="#171717" stroke-width="3" stroke-linecap="round" stroke-linejoin="round"/>
<path d="M397.694 675.852C404.407 675.826 410.861 678.445 415.66 683.14C420.458 687.836 423.215 694.231 423.335 700.944C423.455 707.657 420.928 714.147 416.3 719.011C411.673 723.875 405.317 726.722 398.607 726.937C391.896 727.151 385.371 724.716 380.443 720.157C375.514 715.599 372.577 709.283 372.268 702.577C371.959 695.87 374.302 689.311 378.791 684.319C383.28 679.326 389.553 676.301 396.255 675.898C396.727 675.863 397.21 675.852 397.694 675.852Z" stroke="#171717" stroke-width="3" stroke-linecap="round" stroke-linejoin="round"/>
<path d="M464.026 509.761C464.026 509.761 454.544 672.745 397.693 675.852C397.209 675.886 396.726 675.898 396.254 675.898C340.634 676.185 328.909 514.789 328.909 514.789C328.909 514.789 419.347 534.936 458.744 508.139" stroke="#171717" stroke-width="3" stroke-linecap="round" stroke-linejoin="round"/>
<path d="M379.283 416.629C379.283 416.629 386.865 431.3 401.214 425.455" stroke="#171717" stroke-width="3" stroke-linecap="round" stroke-linejoin="round"/>
<path d="M407.646 363.288C407.68 363.737 407.703 364.188 407.703 364.646C407.716 369.196 405.944 373.569 402.768 376.827C399.591 380.084 395.264 381.966 390.715 382.068C386.167 382.17 381.759 380.484 378.44 377.372C375.121 374.26 373.155 369.97 372.965 365.424C372.774 360.878 374.373 356.439 377.42 353.06C380.466 349.681 384.717 347.631 389.258 347.351C393.799 347.072 398.269 348.584 401.707 351.564C405.145 354.544 407.278 358.753 407.646 363.288V363.288Z" stroke="#171717" stroke-width="3" stroke-linecap="round" stroke-linejoin="round"/>
<path d="M423.3 363.287C423.647 358.821 425.711 354.662 429.058 351.684C432.406 348.706 436.777 347.14 441.254 347.316C445.731 347.492 449.965 349.395 453.069 352.626C456.173 355.857 457.904 360.165 457.9 364.645C457.9 364.945 457.888 365.246 457.877 365.546C457.64 370.055 455.651 374.294 452.335 377.359C449.018 380.425 444.636 382.074 440.122 381.957C435.608 381.84 431.317 379.965 428.165 376.731C425.012 373.498 423.246 369.161 423.243 364.645C423.237 364.185 423.26 363.736 423.3 363.287Z" stroke="#171717" stroke-width="3" stroke-linecap="round" stroke-linejoin="round"/>
<path d="M407.699 363.287C409.485 361.351 411.844 360.037 414.43 359.537C416.996 359.157 420.08 359.881 423.23 363.287" stroke="#171717" stroke-width="3" stroke-linecap="round" stroke-linejoin="round"/>
<path d="M371.7 364.646C371.7 364.646 362.334 357.213 354.292 359.446" stroke="#171717" stroke-width="3" stroke-linecap="round" stroke-linejoin="round"/>
<path d="M462.059 353.266C467.847 358.289 474.194 362.629 480.975 366.201C490.203 371.001 501.536 374.681 511.938 371.954C514.552 371.397 516.922 370.023 518.704 368.031C527.736 357.146 507.612 331.487 507.612 331.487C507.612 331.487 534.145 322.961 527.368 307.796C524.134 300.559 516.69 297.084 509.775 295.427C505.02 294.329 500.144 293.846 495.266 293.989C495.266 293.989 519.521 273.68 505.989 263.67C501.767 260.54 496.089 259.608 490.295 259.792C477.489 260.207 464.027 266.098 464.027 266.098C464.027 266.098 465.649 244.179 442.901 241.463C420.153 238.747 417.185 263.935 417.185 263.935C417.185 263.935 403.919 239.576 382.529 245.801C361.139 252.026 363 273.678 363 273.678C363 273.678 346.247 255.809 326.215 267.73C306.183 279.651 318.632 309.693 318.632 309.693C315.354 309.258 312.032 309.281 308.76 309.762C302.972 310.648 296.402 313.409 294.274 321.062C290.212 335.674 305.906 347.319 305.906 347.319C305.906 347.319 291.306 349.758 293.595 363.289C295.884 376.82 316.469 381.975 316.469 381.975C316.469 381.975 307.54 397.681 328.113 404.584C348.413 411.396 354.025 389.884 354.175 389.293V389.281" stroke="#171717" stroke-width="3" stroke-linecap="round" stroke-linejoin="round"/>
<path d="M749.09 241.253L733.28 234.522L512.248 140.3L497.923 134.2L380.434 84.1142C373.243 81.0494 365.154 80.8432 357.816 83.5376C350.478 86.232 344.444 91.6241 340.945 98.6142L216.253 326.767C214.359 330.548 213.265 334.679 213.042 338.902C212.819 343.124 213.47 347.348 214.955 351.307C216.441 355.266 218.728 358.876 221.674 361.91C224.62 364.943 228.161 367.336 232.074 368.937L356.811 426.8" stroke="#171717" stroke-width="3" stroke-linecap="round" stroke-linejoin="round"/>
<path d="M754.533 243.578L749.091 241.266" stroke="#171717" stroke-width="3" stroke-linecap="round" stroke-linejoin="round"/>
<path d="M420.51 456.349L529.715 507.01L678.328 575.943L716.908 593.835C724.176 596.815 732.31 596.892 739.634 594.052C746.957 591.211 752.912 585.669 756.27 578.567L883.252 333.129C885.439 328.516 886.44 323.43 886.163 318.332C885.885 313.235 884.339 308.287 881.664 303.938C880.992 302.831 880.247 301.77 879.432 300.763C876.275 296.824 872.191 293.728 867.546 291.753L865.246 290.775" stroke="#171717" stroke-width="3" stroke-linecap="round" stroke-linejoin="round"/>
<path d="M879.432 300.764L881.664 303.939L882.723 305.447L913.5 349.274C916.844 353.938 918.887 359.408 919.416 365.123C919.946 370.838 918.944 376.59 916.514 381.79L820.104 586.829C817.322 592.78 812.789 597.74 807.112 601.046C801.435 604.352 794.885 605.846 788.336 605.329L725.144 596.135" stroke="#171717" stroke-width="3" stroke-linecap="round" stroke-linejoin="round"/>
<path d="M788.636 445.338C765.325 494.938 708.864 517.493 662.518 495.712C616.172 473.931 597.485 416.078 620.799 366.475C644.113 316.872 700.56 294.332 746.906 316.113C793.252 337.894 811.936 395.747 788.636 445.338Z" stroke="#171717" stroke-width="3" stroke-linecap="round" stroke-linejoin="round"/>
<path d="M308.763 309.763C299.639 285.427 300.191 256.8 312.548 230.497C335.848 180.906 392.309 158.354 438.667 180.135C469.906 194.816 488.581 225.894 490.295 259.791" stroke="#171717" stroke-width="3" stroke-linecap="round" stroke-linejoin="round"/>
<path d="M497.924 134.201L529.669 104.469L753.164 193.814L749.091 241.254V241.266" stroke="#171717" stroke-width="3" stroke-linecap="round" stroke-linejoin="round"/>
<path d="M733.281 234.523V198.693L540.37 122.338L512.249 140.299" stroke="#171717" stroke-width="3" stroke-linecap="round" stroke-linejoin="round"/>
<path d="M512.502 294.677L529.669 258.812L544.454 227.93L645.95 271.791L630.647 300.764L608.624 342.462L580.158 396.345L562.3 430.162L472.138 386.3L480.975 366.199" stroke="#171717" stroke-width="3" stroke-linecap="round" stroke-linejoin="round"/>
<path d="M368.181 104.469L766.971 277.073" stroke="#171717" stroke-width="3" stroke-linecap="round" stroke-linejoin="round"/>
<path d="M529.669 258.812L630.647 300.764" stroke="#171717" stroke-width="3" stroke-linecap="round" stroke-linejoin="round"/>
<path d="M527.367 307.793L608.623 342.461" stroke="#171717" stroke-width="3" stroke-linecap="round" stroke-linejoin="round"/>
<path d="M518.703 368.029L580.157 396.345" stroke="#171717" stroke-width="3" stroke-linecap="round" stroke-linejoin="round"/>
<path d="M830.819 290.7C830.805 290.724 830.79 290.747 830.773 290.769C830.773 290.78 830.761 290.792 830.75 290.803C829.507 292.955 809.578 327.784 817.725 336.23C822.776 341.453 855.025 318.13 864.877 290.654C871.47 272.279 868.052 252.054 839.782 237.254" stroke="#171717" stroke-width="3" stroke-linecap="round" stroke-linejoin="round"/>
<path d="M807.358 279.568C805.873 281.479 780.617 314.018 790.605 325.568C800.593 337.118 829.173 293.236 830.75 290.796" stroke="#171717" stroke-width="3" stroke-linecap="round" stroke-linejoin="round"/>
<path d="M807.438 279.477C807.437 279.485 807.433 279.494 807.427 279.5L807.381 279.546" stroke="#171717" stroke-width="3" stroke-linecap="round" stroke-linejoin="round"/>
<path d="M807.381 279.546C807.392 279.523 807.415 279.5 807.427 279.5" stroke="#171717" stroke-width="3" stroke-linecap="round" stroke-linejoin="round"/>
<path d="M807.38 279.545C807.38 279.557 807.368 279.557 807.357 279.568" stroke="#171717" stroke-width="3" stroke-linecap="round" stroke-linejoin="round"/>
<path d="M885.07 303.79C885.07 303.79 901.903 259.837 878.523 243.935C868.536 237.146 853.612 236.157 839.782 237.25C827.87 238.297 816.094 240.536 804.631 243.935C804.631 243.935 762.311 226.469 754.131 239.114C753.395 240.242 753.809 241.53 755.017 242.888C761.576 250.24 791.538 259.871 791.538 259.871C791.538 259.871 760.678 296.633 765.35 308.162C769.906 319.381 805.414 281.641 807.359 279.569" stroke="#171717" stroke-width="3" stroke-linecap="round" stroke-linejoin="round"/>
<path d="M248.183 816.768C248.195 816.769 248.207 816.773 248.218 816.78C250.772 817.7 388.618 866.751 553.061 808.725" stroke="#171717" stroke-width="3" stroke-linecap="round" stroke-linejoin="round"/>
<path d="M58.8202 590.909L40.7852 573.602" stroke="#171717" stroke-width="3" stroke-linecap="round" stroke-linejoin="round"/>
<path d="M40.9307 593.052L55.5557 571.127" stroke="#171717" stroke-width="3" stroke-linecap="round" stroke-linejoin="round"/>
<path d="M181.166 431.66L178.751 404.855" stroke="#171717" stroke-width="3" stroke-linecap="round" stroke-linejoin="round"/>
<path d="M166.623 419.473L192.249 416.143" stroke="#171717" stroke-width="3" stroke-linecap="round" stroke-linejoin="round"/>
<path d="M188.551 300.078L176.368 286.678" stroke="#171717" stroke-width="3" stroke-linecap="round" stroke-linejoin="round"/>
<path d="M174.942 301.207C177.873 294.38 183.143 288.821 189.804 285.529" stroke="#171717" stroke-width="3" stroke-linecap="round" stroke-linejoin="round"/>
<path d="M102.129 289.332C93.9448 301.545 85.5288 314.376 83.8348 328.98C82.1408 343.584 89.5598 360.38 103.765 364.172C109.827 365.791 116.957 364.583 121.114 359.883C125.271 355.183 125.079 346.81 119.879 343.298C114.391 339.591 106.696 342.636 102.041 347.347C87.4528 362.108 91.8598 386.994 101.117 405.569C110.374 424.144 123.741 441.899 124.498 462.639C124.764 469.939 123.226 477.63 118.456 483.156C113.686 488.682 105.156 491.308 98.7478 487.804C92.3398 484.3 90.4478 474.004 96.1698 469.462" stroke="#171717" stroke-width="3" stroke-linecap="round" stroke-linejoin="round"/>
<path d="M172.462 198.658C167.985 198.49 163.142 199.276 159.953 202.423C156.764 205.57 156.286 211.623 159.938 214.216C163.625 216.836 169.143 214.411 171.375 210.476C173.607 206.541 173.475 201.75 173.292 197.231L171.217 147.424C172.85 151.407 175.576 154.847 179.081 157.347C182.586 159.846 186.726 161.304 191.024 161.55C195.322 161.797 199.602 160.823 203.369 158.741C207.137 156.658 210.239 153.553 212.317 149.783L211.675 194.821C211.61 199.406 211.482 204.221 209.167 208.183C206.852 212.145 201.554 214.754 197.537 212.543C192.983 210.036 193.297 202.468 197.557 199.491C201.817 196.514 208.116 197.891 211.717 201.64" stroke="#171717" stroke-width="3" stroke-linecap="round" stroke-linejoin="round"/>
<path d="M295.521 88.7399C291.089 84.1929 281.731 87.9019 281.621 94.2509C281.511 100.6 290.721 104.644 295.321 100.26C299.721 96.0599 298.144 88.8109 296.239 83.0279C292.063 70.3539 287.887 57.6799 283.712 45.0059C284.695 47.4125 286.354 49.4834 288.487 50.9691C290.62 52.4549 293.138 53.292 295.736 53.3797C298.334 53.4675 300.902 52.802 303.131 51.4635C305.36 50.125 307.154 48.1707 308.297 45.8359" stroke="#171717" stroke-width="3" stroke-linecap="round" stroke-linejoin="round"/>
<path d="M791.335 647.131C809.659 647.558 827.716 636.139 835.185 619.4" stroke="#171717" stroke-width="3" stroke-linecap="round" stroke-linejoin="round"/>
<path d="M95.1445 606.352C102.843 588.249 115.032 572.411 130.561 560.334" stroke="#171717" stroke-width="3" stroke-linecap="round" stroke-linejoin="round"/>
<path d="M907.487 286.169C909.891 280.196 910.767 273.718 910.037 267.321C909.307 260.923 906.993 254.809 903.306 249.531" stroke="#171717" stroke-width="3" stroke-linecap="round" stroke-linejoin="round"/>
<path d="M716.938 139.645L742.5 126.201" stroke="#171717" stroke-width="3" stroke-linecap="round" stroke-linejoin="round"/>
<path d="M664.5 116.6L686.521 58.1562" stroke="#171717" stroke-width="3" stroke-linecap="round" stroke-linejoin="round"/>
<path d="M601.124 98.409L597.424 77.709" stroke="#171717" stroke-width="3" stroke-linecap="round" stroke-linejoin="round"/>
<path d="M724.168 672.972C715.442 655.944 691.461 652.5 673.607 659.379C648.577 669.023 630.975 695.326 631.607 722.142C631.791 729.977 633.531 738.076 638.396 744.22C643.261 750.364 651.773 754.034 659.209 751.559C666.645 749.084 671.286 739.403 667.197 732.718C663.108 726.033 652.628 725.644 646.529 730.572C640.43 735.5 638.215 743.95 638.513 751.786C638.986 764.186 644.695 775.686 648.572 787.476C652.449 799.266 654.306 812.982 647.679 823.476C641.052 833.97 623.079 836.968 616.733 826.303" stroke="#171717" stroke-width="3" stroke-linecap="round" stroke-linejoin="round"/>
<path d="M610.017 705.012L603.876 689.193" stroke="#171717" stroke-width="3" stroke-linecap="round" stroke-linejoin="round"/>
<path d="M598.847 705.092C603.039 700.578 608.608 697.58 614.684 696.564" stroke="#171717" stroke-width="3" stroke-linecap="round" stroke-linejoin="round"/>
<path d="M679.254 817.176L675.6 801.338" stroke="#171717" stroke-width="3" stroke-linecap="round" stroke-linejoin="round"/>
<path d="M668.289 813.52L684.127 809.865" stroke="#171717" stroke-width="3" stroke-linecap="round" stroke-linejoin="round"/>
<path d="M397.518 712.634L388.707 719.109C388.441 719.305 388.122 719.414 387.792 719.423C387.462 719.431 387.137 719.338 386.862 719.156C386.586 718.975 386.373 718.713 386.251 718.406C386.129 718.099 386.104 717.763 386.179 717.441L388.664 706.793C388.736 706.482 388.715 706.157 388.603 705.858C388.491 705.559 388.292 705.3 388.033 705.114L379.153 698.736C378.885 698.544 378.682 698.274 378.572 697.963C378.462 697.651 378.45 697.314 378.538 696.996C378.625 696.677 378.809 696.394 379.063 696.183C379.317 695.972 379.629 695.844 379.958 695.816L390.852 694.889C391.17 694.862 391.472 694.741 391.722 694.542C391.971 694.343 392.155 694.074 392.252 693.77L395.575 683.353C395.676 683.039 395.87 682.763 396.132 682.563C396.394 682.362 396.711 682.247 397.041 682.232C397.37 682.217 397.696 682.304 397.975 682.48C398.254 682.656 398.473 682.913 398.601 683.217L402.849 693.291C402.973 693.586 403.182 693.837 403.449 694.013C403.716 694.189 404.029 694.281 404.349 694.279L415.282 694.219C415.612 694.217 415.935 694.317 416.207 694.504C416.479 694.691 416.687 694.957 416.803 695.266C416.919 695.575 416.938 695.912 416.856 696.232C416.775 696.552 416.598 696.839 416.348 697.055L408.079 704.209C407.838 704.418 407.663 704.693 407.578 705.001C407.493 705.308 407.502 705.634 407.602 705.937L411.037 716.317C411.141 716.63 411.146 716.968 411.052 717.284C410.958 717.601 410.77 717.881 410.512 718.087C410.254 718.292 409.939 718.414 409.61 718.436C409.28 718.457 408.952 718.377 408.67 718.206L399.311 712.553C399.038 712.388 398.721 712.307 398.402 712.321C398.083 712.336 397.775 712.445 397.518 712.634V712.634Z" fill="#171717"/>
<path d="M227.326 571.974L217.6 575.601C217.306 575.71 216.986 575.727 216.683 575.649C216.38 575.571 216.108 575.401 215.903 575.164C215.699 574.927 215.572 574.633 215.54 574.321C215.508 574.01 215.572 573.696 215.724 573.422L220.759 564.344C220.907 564.078 220.972 563.775 220.947 563.472C220.922 563.17 220.808 562.881 220.619 562.644L214.167 554.513C213.972 554.267 213.857 553.968 213.837 553.655C213.817 553.343 213.894 553.031 214.057 552.764C214.219 552.496 214.46 552.284 214.747 552.158C215.034 552.031 215.352 551.996 215.66 552.056L225.849 554.038C226.146 554.096 226.454 554.064 226.733 553.947C227.013 553.83 227.251 553.633 227.419 553.381L233.158 544.732C233.331 544.47 233.58 544.268 233.872 544.153C234.163 544.037 234.483 544.014 234.788 544.086C235.093 544.158 235.369 544.322 235.578 544.556C235.787 544.789 235.92 545.081 235.958 545.393L237.22 555.693C237.257 555.993 237.382 556.276 237.58 556.506C237.778 556.735 238.039 556.901 238.331 556.983L248.331 559.769C248.633 559.853 248.902 560.027 249.101 560.268C249.301 560.51 249.422 560.807 249.447 561.119C249.473 561.431 249.402 561.744 249.245 562.015C249.088 562.285 248.851 562.501 248.567 562.634L239.159 567.019C238.884 567.147 238.653 567.353 238.496 567.612C238.339 567.871 238.262 568.171 238.275 568.474L238.716 578.844C238.729 579.157 238.646 579.466 238.478 579.731C238.311 579.996 238.065 580.202 237.776 580.323C237.487 580.444 237.168 580.474 236.862 580.408C236.555 580.342 236.277 580.184 236.063 579.955L228.985 572.362C228.778 572.14 228.51 571.985 228.214 571.916C227.919 571.846 227.61 571.867 227.326 571.974Z" fill="#171717"/>
<path d="M415.617 582.419L411.569 591.978C411.447 592.267 411.24 592.511 410.974 592.678C410.709 592.845 410.399 592.927 410.086 592.912C409.773 592.898 409.472 592.788 409.224 592.597C408.975 592.406 408.791 592.143 408.697 591.844L405.557 581.95C405.465 581.661 405.291 581.406 405.054 581.217C404.818 581.028 404.531 580.912 404.229 580.886L393.887 579.991C393.575 579.964 393.279 579.842 393.038 579.641C392.798 579.441 392.625 579.171 392.542 578.869C392.459 578.567 392.471 578.247 392.575 577.952C392.68 577.657 392.872 577.401 393.127 577.218L401.567 571.175C401.813 570.998 402.001 570.753 402.108 570.469C402.215 570.186 402.235 569.877 402.167 569.582L399.823 559.47C399.753 559.165 399.778 558.846 399.894 558.556C400.011 558.266 400.213 558.018 400.474 557.846C400.735 557.674 401.043 557.586 401.355 557.594C401.668 557.602 401.971 557.705 402.223 557.89L410.578 564.049C410.822 564.229 411.113 564.332 411.416 564.346C411.718 564.361 412.018 564.285 412.278 564.129L421.17 558.774C421.439 558.612 421.751 558.536 422.064 558.557C422.377 558.578 422.676 558.695 422.92 558.891C423.165 559.087 423.344 559.354 423.432 559.655C423.521 559.956 423.515 560.277 423.415 560.574L420.14 570.424C420.044 570.711 420.036 571.021 420.116 571.313C420.196 571.605 420.361 571.867 420.59 572.065L428.43 578.865C428.667 579.07 428.835 579.343 428.912 579.647C428.988 579.951 428.97 580.271 428.86 580.564C428.749 580.857 428.551 581.11 428.293 581.287C428.035 581.464 427.728 581.558 427.415 581.556L417.035 581.484C416.733 581.483 416.437 581.571 416.185 581.737C415.932 581.904 415.735 582.141 415.617 582.419Z" fill="#171717"/>
<path d="M296.689 731.3L287.878 736.787C287.612 736.953 287.302 737.033 286.989 737.017C286.676 737 286.376 736.889 286.128 736.697C285.881 736.505 285.698 736.241 285.605 735.942C285.512 735.643 285.512 735.323 285.606 735.024L288.734 725.124C288.825 724.835 288.829 724.526 288.744 724.235C288.66 723.944 288.491 723.685 288.259 723.49L280.318 716.805C280.081 716.603 279.911 716.333 279.831 716.031C279.751 715.73 279.764 715.411 279.87 715.117C279.976 714.824 280.169 714.57 280.424 714.389C280.678 714.208 280.981 714.109 281.293 714.105L291.672 714.021C291.975 714.019 292.271 713.927 292.521 713.756C292.772 713.586 292.966 713.346 293.08 713.065L296.98 703.446C297.098 703.156 297.302 702.909 297.565 702.738C297.827 702.567 298.136 702.481 298.449 702.491C298.762 702.501 299.065 702.606 299.316 702.793C299.567 702.98 299.755 703.24 299.854 703.537L303.141 713.383C303.237 713.67 303.417 713.923 303.656 714.109C303.895 714.294 304.184 714.405 304.486 714.427L314.84 715.167C315.153 715.189 315.451 715.307 315.694 715.504C315.938 715.701 316.115 715.968 316.202 716.269C316.29 716.57 316.282 716.89 316.182 717.187C316.081 717.483 315.892 717.742 315.64 717.928L307.299 724.1C307.056 724.28 306.871 724.528 306.769 724.813C306.666 725.097 306.65 725.406 306.722 725.7L309.222 735.775C309.298 736.079 309.278 736.399 309.166 736.692C309.054 736.984 308.855 737.235 308.596 737.412C308.337 737.588 308.03 737.68 307.716 737.676C307.403 737.673 307.098 737.573 306.843 737.391L298.396 731.358C298.15 731.18 297.856 731.08 297.552 731.069C297.248 731.059 296.948 731.139 296.689 731.3V731.3Z" fill="#171717"/>
<path d="M488.271 676.313L477.637 685.647C477.316 685.929 476.916 686.106 476.492 686.154C476.067 686.201 475.639 686.118 475.263 685.914C474.888 685.711 474.584 685.397 474.392 685.016C474.2 684.634 474.13 684.203 474.191 683.781L476.202 669.774C476.26 669.366 476.197 668.949 476.019 668.576C475.841 668.204 475.556 667.893 475.202 667.682L463.039 660.452C462.672 660.234 462.38 659.909 462.204 659.52C462.028 659.131 461.975 658.697 462.052 658.278C462.13 657.858 462.334 657.472 462.637 657.171C462.941 656.871 463.329 656.671 463.75 656.597L477.692 654.182C478.098 654.112 478.475 653.922 478.775 653.637C479.074 653.352 479.282 652.985 479.373 652.582L482.49 638.782C482.584 638.366 482.803 637.989 483.119 637.701C483.434 637.413 483.83 637.229 484.253 637.172C484.677 637.116 485.107 637.191 485.486 637.387C485.866 637.583 486.176 637.89 486.376 638.268L492.981 650.781C493.173 651.146 493.47 651.446 493.833 651.642C494.196 651.839 494.609 651.924 495.021 651.885L509.11 650.585C509.535 650.546 509.962 650.638 510.333 650.849C510.704 651.06 511.002 651.38 511.187 651.765C511.371 652.15 511.433 652.583 511.363 653.004C511.294 653.426 511.098 653.816 510.801 654.122L500.942 664.271C500.654 664.567 500.46 664.942 500.385 665.348C500.31 665.754 500.357 666.173 500.521 666.552L506.112 679.552C506.28 679.945 506.325 680.379 506.239 680.798C506.153 681.216 505.941 681.598 505.632 681.892C505.322 682.186 504.93 682.379 504.508 682.443C504.085 682.507 503.654 682.441 503.271 682.252L490.571 676.011C490.2 675.829 489.784 675.76 489.375 675.814C488.965 675.868 488.581 676.042 488.271 676.313Z" fill="#171717"/>
<path d="M174.974 656.534L161.5 660.85C161.093 660.98 160.656 660.982 160.248 660.856C159.84 660.73 159.48 660.483 159.217 660.146C158.954 659.81 158.801 659.401 158.777 658.975C158.753 658.548 158.861 658.125 159.085 657.762L166.517 645.722C166.734 645.37 166.842 644.963 166.827 644.55C166.813 644.138 166.676 643.739 166.435 643.404L158.166 631.922C157.916 631.575 157.779 631.16 157.772 630.733C157.765 630.306 157.889 629.887 158.128 629.533C158.367 629.179 158.708 628.906 159.106 628.752C159.505 628.598 159.941 628.569 160.356 628.671L174.104 632.019C174.506 632.116 174.927 632.092 175.315 631.949C175.703 631.807 176.04 631.553 176.283 631.219L184.648 619.807C184.9 619.462 185.252 619.204 185.656 619.066C186.06 618.927 186.497 618.916 186.908 619.034C187.318 619.151 187.683 619.391 187.953 619.722C188.223 620.053 188.385 620.459 188.417 620.885L189.48 635.002C189.511 635.413 189.663 635.807 189.917 636.132C190.172 636.457 190.517 636.7 190.909 636.83L204.348 641.259C204.754 641.392 205.108 641.647 205.365 641.988C205.621 642.33 205.767 642.742 205.782 643.169C205.797 643.596 205.681 644.017 205.45 644.376C205.218 644.734 204.882 645.014 204.487 645.176L191.397 650.548C191.014 650.704 190.686 650.97 190.455 651.312C190.223 651.655 190.099 652.058 190.097 652.472L190.037 666.621C190.035 667.048 189.903 667.464 189.657 667.813C189.412 668.163 189.065 668.429 188.664 668.575C188.263 668.721 187.826 668.741 187.413 668.632C187.001 668.522 186.631 668.289 186.355 667.964L177.201 657.175C176.934 656.86 176.581 656.631 176.184 656.517C175.788 656.403 175.367 656.409 174.974 656.534Z" fill="#171717"/>
<path d="M562.309 578.135L548.834 582.451C548.427 582.581 547.99 582.584 547.582 582.458C547.174 582.332 546.815 582.085 546.551 581.749C546.288 581.412 546.134 581.004 546.111 580.577C546.087 580.151 546.194 579.728 546.418 579.364L553.851 567.323C554.068 566.972 554.176 566.564 554.161 566.152C554.147 565.739 554.01 565.34 553.769 565.005L545.5 553.523C545.25 553.177 545.113 552.762 545.106 552.335C545.099 551.908 545.223 551.489 545.462 551.135C545.701 550.78 546.042 550.508 546.441 550.353C546.839 550.199 547.275 550.171 547.69 550.272L561.437 553.62C561.839 553.718 562.26 553.693 562.648 553.551C563.036 553.409 563.373 553.154 563.617 552.82L571.982 541.408C572.234 541.064 572.586 540.805 572.99 540.667C573.394 540.529 573.831 540.518 574.242 540.635C574.652 540.753 575.017 540.993 575.287 541.324C575.557 541.655 575.719 542.06 575.751 542.486L576.814 556.596C576.845 557.008 576.998 557.401 577.252 557.726C577.507 558.052 577.852 558.294 578.244 558.423L591.682 562.852C592.088 562.986 592.443 563.24 592.699 563.582C592.956 563.923 593.101 564.335 593.117 564.762C593.132 565.189 593.016 565.61 592.784 565.969C592.553 566.328 592.217 566.607 591.822 566.769L578.732 572.141C578.349 572.297 578.022 572.564 577.79 572.906C577.559 573.249 577.434 573.652 577.432 574.065L577.373 588.215C577.371 588.642 577.238 589.058 576.992 589.408C576.747 589.757 576.4 590.023 575.999 590.169C575.598 590.315 575.161 590.335 574.749 590.226C574.336 590.117 573.966 589.884 573.69 589.558L564.536 578.768C564.268 578.455 563.914 578.228 563.518 578.115C563.122 578.002 562.701 578.009 562.309 578.135Z" fill="#171717"/>
<path d="M509.259 788.361L504.183 797.415C504.03 797.688 503.797 797.907 503.515 798.044C503.233 798.18 502.916 798.227 502.607 798.178C502.297 798.129 502.01 797.987 501.784 797.77C501.559 797.553 501.405 797.272 501.343 796.965L499.313 786.785C499.254 786.489 499.108 786.217 498.894 786.003C498.681 785.79 498.409 785.644 498.113 785.585L487.933 783.555C487.626 783.493 487.345 783.339 487.128 783.113C486.912 782.887 486.769 782.6 486.72 782.291C486.671 781.981 486.718 781.664 486.854 781.382C486.991 781.101 487.21 780.867 487.483 780.714L496.538 775.639C496.802 775.49 497.017 775.267 497.154 774.997C497.292 774.727 497.346 774.422 497.311 774.122L496.096 763.813C496.06 763.502 496.121 763.188 496.269 762.912C496.417 762.636 496.646 762.413 496.925 762.271C497.204 762.13 497.52 762.077 497.829 762.12C498.139 762.163 498.428 762.3 498.658 762.513L506.283 769.556C506.506 769.761 506.784 769.896 507.083 769.943C507.383 769.99 507.689 769.948 507.964 769.822L517.393 765.481C517.678 765.349 517.996 765.308 518.304 765.363C518.613 765.418 518.897 765.567 519.118 765.788C519.34 766.01 519.488 766.294 519.543 766.603C519.598 766.911 519.558 767.229 519.426 767.514L515.085 776.943C514.958 777.218 514.916 777.524 514.963 777.823C515.011 778.123 515.146 778.401 515.351 778.624L522.393 786.25C522.605 786.48 522.741 786.769 522.784 787.078C522.827 787.388 522.774 787.703 522.633 787.982C522.491 788.261 522.268 788.49 521.993 788.638C521.718 788.786 521.404 788.847 521.093 788.812L510.784 787.596C510.483 787.558 510.177 787.611 509.906 787.747C509.634 787.883 509.409 788.097 509.259 788.361V788.361Z" fill="#171717"/>
<path d="M132.819 768.624L128.637 776.082C128.511 776.307 128.319 776.488 128.086 776.601C127.854 776.713 127.593 776.752 127.338 776.711C127.083 776.671 126.847 776.553 126.661 776.374C126.475 776.195 126.348 775.964 126.298 775.711L124.626 767.326C124.577 767.081 124.457 766.856 124.281 766.68C124.104 766.503 123.879 766.383 123.635 766.335L115.251 764.663C114.998 764.612 114.766 764.486 114.587 764.3C114.408 764.114 114.29 763.877 114.25 763.622C114.21 763.367 114.248 763.106 114.361 762.874C114.473 762.642 114.655 762.45 114.88 762.324L122.338 758.143C122.555 758.02 122.732 757.837 122.845 757.614C122.958 757.392 123.003 757.141 122.974 756.894L121.974 748.403C121.943 748.146 121.992 747.887 122.114 747.659C122.236 747.432 122.424 747.247 122.654 747.13C122.884 747.013 123.144 746.969 123.4 747.004C123.656 747.039 123.894 747.152 124.084 747.328L130.365 753.128C130.548 753.297 130.777 753.408 131.024 753.448C131.27 753.487 131.523 753.452 131.75 753.348L139.516 749.772C139.75 749.664 140.012 749.63 140.266 749.675C140.52 749.721 140.754 749.843 140.937 750.026C141.119 750.208 141.241 750.442 141.286 750.696C141.332 750.95 141.298 751.212 141.19 751.447L137.614 759.213C137.51 759.439 137.475 759.692 137.514 759.938C137.553 760.185 137.664 760.414 137.834 760.598L143.634 766.879C143.809 767.068 143.922 767.307 143.957 767.562C143.993 767.818 143.949 768.078 143.832 768.308C143.714 768.538 143.53 768.727 143.302 768.848C143.074 768.97 142.815 769.019 142.559 768.989L134.068 767.989C133.82 767.959 133.569 768.004 133.347 768.117C133.125 768.23 132.941 768.406 132.819 768.624Z" fill="#171717"/>
<path d="M349.327 807.8L343.28 813.843C343.098 814.026 342.864 814.148 342.61 814.194C342.356 814.239 342.094 814.206 341.859 814.098C341.625 813.99 341.429 813.812 341.299 813.59C341.168 813.367 341.109 813.11 341.129 812.852L341.794 804.328C341.814 804.08 341.759 803.831 341.638 803.613C341.516 803.395 341.332 803.218 341.109 803.105L333.493 799.221C333.263 799.104 333.075 798.919 332.953 798.692C332.831 798.464 332.782 798.205 332.812 797.948C332.843 797.692 332.951 797.451 333.122 797.258C333.294 797.065 333.52 796.929 333.771 796.869L342.083 794.869C342.326 794.811 342.546 794.682 342.715 794.499C342.885 794.316 342.996 794.087 343.035 793.84L344.375 785.396C344.416 785.142 344.534 784.905 344.713 784.719C344.891 784.533 345.123 784.407 345.376 784.356C345.629 784.306 345.891 784.334 346.128 784.437C346.364 784.54 346.563 784.714 346.698 784.933L351.169 792.22C351.3 792.433 351.491 792.602 351.717 792.707C351.944 792.811 352.197 792.846 352.443 792.807L360.888 791.473C361.143 791.433 361.404 791.472 361.637 791.584C361.869 791.697 362.061 791.878 362.187 792.103C362.313 792.328 362.367 792.587 362.342 792.843C362.316 793.1 362.213 793.343 362.045 793.539L356.496 800.039C356.335 800.229 356.232 800.463 356.203 800.711C356.174 800.959 356.219 801.21 356.332 801.432L360.211 809.051C360.329 809.281 360.373 809.542 360.337 809.797C360.302 810.053 360.189 810.292 360.014 810.481C359.839 810.671 359.609 810.802 359.357 810.858C359.105 810.913 358.842 810.889 358.603 810.79L350.703 807.523C350.472 807.428 350.218 807.404 349.973 807.453C349.728 807.502 349.504 807.623 349.327 807.8V807.8Z" fill="#171717"/>
<path d="M312.176 589.111L307.197 594.087C307.047 594.237 306.854 594.338 306.645 594.375C306.435 594.413 306.22 594.385 306.027 594.296C305.834 594.207 305.673 594.061 305.565 593.878C305.457 593.695 305.409 593.483 305.425 593.271L305.974 586.252C305.99 586.047 305.945 585.842 305.844 585.663C305.743 585.484 305.592 585.338 305.409 585.245L299.138 582.045C298.948 581.949 298.793 581.797 298.692 581.609C298.592 581.422 298.552 581.208 298.577 580.997C298.601 580.785 298.691 580.587 298.832 580.428C298.973 580.269 299.16 580.157 299.367 580.108L306.211 578.46C306.411 578.412 306.592 578.306 306.732 578.156C306.871 578.005 306.963 577.816 306.995 577.613L308.095 570.66C308.128 570.45 308.225 570.256 308.372 570.102C308.519 569.949 308.71 569.845 308.918 569.803C309.127 569.762 309.343 569.785 309.537 569.87C309.732 569.955 309.896 570.098 310.007 570.279L313.689 576.279C313.796 576.454 313.953 576.594 314.14 576.68C314.327 576.766 314.535 576.795 314.738 576.763L321.692 575.663C321.902 575.63 322.116 575.662 322.307 575.755C322.498 575.847 322.656 575.996 322.76 576.181C322.864 576.366 322.909 576.579 322.888 576.79C322.867 577.002 322.783 577.201 322.645 577.363L318.076 582.719C317.942 582.875 317.858 583.068 317.834 583.272C317.81 583.476 317.847 583.683 317.94 583.866L321.134 590.14C321.23 590.329 321.266 590.544 321.237 590.754C321.207 590.964 321.114 591.161 320.97 591.317C320.826 591.473 320.638 591.581 320.43 591.626C320.223 591.672 320.006 591.653 319.81 591.572L313.31 588.882C313.12 588.804 312.91 588.784 312.708 588.824C312.506 588.865 312.321 588.965 312.176 589.111V589.111Z" fill="#171717"/>
<path d="M809.973 195.447L800.886 204.528C800.611 204.8 800.259 204.982 799.878 205.049C799.497 205.116 799.105 205.065 798.754 204.903C798.402 204.741 798.109 204.476 797.912 204.143C797.715 203.81 797.625 203.424 797.654 203.039L798.654 190.231C798.683 189.857 798.6 189.483 798.417 189.156C798.234 188.829 797.958 188.563 797.625 188.393L786.18 182.557C785.836 182.379 785.554 182.101 785.373 181.759C785.191 181.418 785.118 181.029 785.164 180.645C785.209 180.26 785.371 179.899 785.627 179.609C785.883 179.319 786.222 179.115 786.598 179.023L799.088 176.016C799.452 175.928 799.782 175.734 800.037 175.458C800.291 175.183 800.459 174.839 800.518 174.469L802.532 161.781C802.594 161.399 802.772 161.045 803.041 160.767C803.309 160.489 803.657 160.299 804.036 160.224C804.416 160.149 804.809 160.191 805.164 160.345C805.519 160.499 805.818 160.758 806.022 161.087L812.741 172.036C812.937 172.355 813.223 172.609 813.564 172.766C813.904 172.923 814.283 172.976 814.654 172.918L827.344 170.918C827.725 170.86 828.115 170.92 828.462 171.089C828.809 171.259 829.095 171.53 829.284 171.867C829.473 172.203 829.555 172.589 829.519 172.974C829.483 173.358 829.331 173.722 829.083 174.018L820.745 183.791C820.502 184.076 820.349 184.427 820.305 184.799C820.261 185.171 820.328 185.548 820.498 185.883L826.326 197.332C826.499 197.677 826.564 198.067 826.51 198.45C826.456 198.833 826.286 199.191 826.024 199.475C825.761 199.759 825.418 199.956 825.041 200.04C824.663 200.124 824.269 200.091 823.911 199.945L812.039 195.036C811.692 194.893 811.311 194.855 810.944 194.929C810.576 195.002 810.238 195.182 809.973 195.447V195.447Z" fill="#171717"/>
<path d="M55.8826 387.691L49.9076 393.662C49.7274 393.842 49.4962 393.963 49.2452 394.008C48.9943 394.053 48.7356 394.02 48.504 393.913C48.2725 393.806 48.0792 393.631 47.9502 393.411C47.8212 393.191 47.7627 392.937 47.7826 392.683L48.4406 384.261C48.4597 384.015 48.4055 383.77 48.285 383.555C48.1646 383.34 47.9831 383.165 47.7636 383.053L40.2386 379.215C40.0117 379.099 39.8256 378.917 39.7056 378.692C39.5856 378.467 39.5373 378.211 39.5672 377.958C39.5972 377.705 39.704 377.467 39.8732 377.276C40.0424 377.086 40.2659 376.952 40.5136 376.892L48.7256 374.915C48.9652 374.857 49.1824 374.73 49.3496 374.549C49.5169 374.368 49.6269 374.142 49.6656 373.898L50.9906 365.555C51.0293 365.302 51.145 365.067 51.3221 364.881C51.4992 364.696 51.729 364.57 51.9804 364.52C52.2317 364.47 52.4923 364.499 52.7268 364.602C52.9612 364.706 53.1581 364.879 53.2906 365.098L57.7076 372.298C57.8367 372.508 58.025 372.675 58.2489 372.778C58.4727 372.882 58.7221 372.916 58.9656 372.878L67.3096 371.559C67.5615 371.52 67.8194 371.558 68.0487 371.669C68.278 371.781 68.4677 371.96 68.5923 372.182C68.7169 372.404 68.7704 372.66 68.7456 372.913C68.7208 373.167 68.6189 373.407 68.4536 373.601L62.9706 380.027C62.8097 380.214 62.7075 380.444 62.6771 380.688C62.6467 380.933 62.6893 381.181 62.7996 381.401L66.6316 388.928C66.7476 389.155 66.7911 389.413 66.7563 389.665C66.7215 389.918 66.61 390.154 66.437 390.341C66.2639 390.529 66.0375 390.658 65.7883 390.713C65.5392 390.768 65.2793 390.745 65.0436 390.647L57.2376 387.419C57.0101 387.326 56.7601 387.302 56.519 387.35C56.278 387.399 56.0566 387.517 55.8826 387.691Z" fill="#171717"/>
<path fill-rule="evenodd" clip-rule="evenodd" d="M490.294 259.789C488.58 225.892 469.905 194.814 438.666 180.133C392.308 158.352 335.847 180.9 312.544 230.495C300.187 256.798 299.635 285.425 308.759 309.761C312.03 309.281 315.353 309.258 318.631 309.692C318.631 309.692 306.182 279.65 326.214 267.729C346.246 255.808 362.999 273.677 362.999 273.677C362.999 273.677 361.138 252.023 382.528 245.798C403.918 239.573 417.184 263.932 417.184 263.932C417.184 263.932 420.152 238.744 442.9 241.46C465.648 244.176 464.026 266.095 464.026 266.095C464.026 266.095 477.488 260.204 490.294 259.789ZM398.908 212.655C404.404 212.339 409.863 213.736 414.531 216.653C419.2 219.571 422.849 223.865 424.974 228.943C425.168 229.408 425.583 229.745 426.079 229.838C426.574 229.932 427.083 229.771 427.434 229.409C431.197 225.529 436.012 222.832 441.287 221.651C446.562 220.47 452.067 220.855 457.125 222.76C462.184 224.664 466.576 228.005 469.762 232.372C472.948 236.738 474.789 241.941 475.059 247.339C475.101 248.167 475.805 248.804 476.632 248.763C477.46 248.721 478.097 248.017 478.056 247.19C477.757 241.207 475.716 235.442 472.186 230.604C468.655 225.765 463.788 222.063 458.182 219.952C452.577 217.842 446.477 217.415 440.631 218.723C435.49 219.875 430.742 222.326 426.836 225.825C424.404 221.029 420.704 216.973 416.121 214.109C410.926 210.863 404.851 209.308 398.735 209.66C392.619 210.012 386.763 212.253 381.974 216.074C377.697 219.486 374.46 224.009 372.605 229.129C367.914 226.441 362.554 225.105 357.124 225.29C351.04 225.497 345.173 227.604 340.348 231.315C335.522 235.026 331.979 240.155 330.217 245.982C328.658 251.134 328.561 256.602 329.913 261.783C326.958 261.861 324.039 262.508 321.318 263.696C317.945 265.169 314.975 267.429 312.657 270.287C310.339 273.145 308.74 276.518 307.995 280.121C307.251 283.725 307.382 287.455 308.377 290.998C308.601 291.796 309.43 292.261 310.227 292.037C311.025 291.812 311.49 290.984 311.265 290.187C310.4 287.106 310.286 283.862 310.933 280.729C311.581 277.595 312.971 274.662 314.987 272.177C317.003 269.691 319.585 267.726 322.518 266.446C325.451 265.165 328.648 264.608 331.841 264.819C332.341 264.852 332.825 264.633 333.13 264.236C333.436 263.838 333.522 263.314 333.361 262.84C331.602 257.669 331.507 252.078 333.088 246.851C334.669 241.624 337.847 237.023 342.176 233.693C346.506 230.364 351.768 228.474 357.226 228.288C362.684 228.102 368.063 229.63 372.609 232.657C373.007 232.922 373.507 232.981 373.956 232.817C374.405 232.653 374.749 232.284 374.881 231.825C376.41 226.536 379.542 221.852 383.845 218.419C388.149 214.985 393.412 212.971 398.908 212.655Z" fill="#171717"/>
<g opacity="0.1">
<path d="M459.422 324.085C442.457 318.349 424.795 314.932 406.916 313.929C392.899 313.046 376.779 312.495 365.33 322.035C352.379 332.828 354.537 350.966 355.56 365.91C356.816 384.274 357.393 402.676 358.388 421.056C359.507 441.723 360.811 462.379 362.3 483.026C362.916 491.587 376.351 491.641 375.706 483.026C373.254 450.263 371.456 417.463 370.312 384.626C370.018 376.426 370.001 368.205 370.184 360C370.336 353.225 369.257 345.624 371.557 339.108C375.757 327.221 391.903 328 402.127 328.257C420.317 328.715 438.558 331.465 456.307 335.387C463.707 337.021 466.547 326.535 459.422 324.087V324.085Z" fill="#171717"/>
</g>
<g opacity="0.1">
<path d="M349.409 490.324C347.133 490.24 345.485 489.824 343.249 490.686C340.825 491.694 338.633 493.188 336.809 495.075C333.524 498.299 330.665 504.664 331.077 509.364C331.461 513.752 334.551 517.52 339.233 517.52C343.347 517.52 347.776 513.777 347.39 509.364C347.29 508.201 347.085 507.064 346.873 505.936C346.697 505 346.773 505.936 346.767 506.178C346.941 504.746 347.366 503.354 348.02 502.067C348.398 501.284 348.879 500.555 349.45 499.898C349.923 499.298 350.468 498.725 350.897 498.085C351.097 497.785 352.264 496.373 351.254 497.138C354.054 495.021 353.292 490.468 349.409 490.324V490.324Z" fill="#171717"/>
</g>
<g opacity="0.1">
<path d="M325.351 514.831C298.976 510.688 270.03 515.88 244.675 523.339C218.511 530.988 193.804 542.942 171.568 558.708C126.368 590.95 93.8001 638.258 79.0111 691.741C70.7111 721.748 67.5821 752.672 71.0491 783.667C71.5641 788.267 74.6231 792.245 79.6271 792.245C83.8361 792.245 88.7591 788.298 88.2051 783.667C81.9426 732.031 93.2986 679.792 120.433 635.415C147.377 591.553 189.586 558.33 238.041 541.18C251.556 536.391 265.475 532.824 279.628 530.523C294.265 528.152 308.96 528.165 323.694 527.077C330.188 526.598 332.756 515.994 325.351 514.831V514.831Z" fill="#171717"/>
</g>
<g opacity="0.1">
<path d="M288.545 618.663C280.645 619.854 278.458 633.095 276.645 639.327C274.34 647.252 272.345 655.281 270.394 663.3C266.422 679.657 262.997 696.134 260.119 712.731C254.287 746.351 250.653 780.316 249.24 814.41C248.78 825.56 266.2 825.566 266.583 814.41C267.724 779.913 271.272 745.538 277.2 711.536C280.168 694.639 283.708 677.856 287.82 661.187C289.875 652.86 292.079 644.569 294.243 636.27C295.622 630.978 298.152 617.214 288.543 618.663H288.545Z" fill="#171717"/>
</g>
</g>
<defs>
<linearGradient id="paint0_linear_583_1341" x1="865.357" y1="236.871" x2="865.357" y2="305.447" gradientUnits="userSpaceOnUse">
<stop stop-color="#FA9DFF"/>
<stop offset="1" stop-color="#C25DDE"/>
</linearGradient>
<linearGradient id="paint1_linear_583_1341" x1="372.901" y1="507.018" x2="372.901" y2="837.025" gradientUnits="userSpaceOnUse">
<stop stop-color="#FA9DFF"/>
<stop offset="1" stop-color="#C25DDE"/>
</linearGradient>
<linearGradient id="paint2_linear_583_1341" x1="558.115" y1="307.793" x2="558.115" y2="396.344" gradientUnits="userSpaceOnUse">
<stop stop-color="#FA9DFF"/>
<stop offset="1" stop-color="#C25DDE"/>
</linearGradient>
<linearGradient id="paint3_linear_583_1341" x1="396.465" y1="508.059" x2="396.465" y2="675.896" gradientUnits="userSpaceOnUse">
<stop stop-color="#FA9DFF"/>
<stop offset="1" stop-color="#C25DDE"/>
</linearGradient>
<linearGradient id="paint4_linear_583_1341" x1="393.827" y1="483.898" x2="393.827" y2="522.052" gradientUnits="userSpaceOnUse">
<stop stop-color="#FA9DFF"/>
<stop offset="1" stop-color="#C25DDE"/>
</linearGradient>
<clipPath id="clip0_583_1341">
<rect width="883" height="874" fill="white" transform="translate(39 43)"/>
</clipPath>
</defs>
</svg>
